<svg width="28" height="28" viewBox="0 0 28 28" fill="none" xmlns="http://www.w3.org/2000/svg">
<path d="M0.195698 19.3306L5.50408 7.74428C5.8742 6.94532 6.54844 6.46155 7.46234 6.46155H7.65816C8.57167 6.46155 9.22445 6.94526 9.59425 7.74428L14.9028 19.3306C15.0116 19.562 15.0769 19.7721 15.0769 19.9825C15.0769 20.8446 14.3807 21.5385 13.4886 21.5385C12.7054 21.5385 12.1832 21.0969 11.8787 20.4239L10.8564 18.111H4.1554L3.08938 20.5292C2.80647 21.16 2.24098 21.5384 1.54469 21.5384C0.674177 21.5384 3.51855e-08 20.8656 3.51855e-08 20.0244C-6.38558e-05 19.7932 0.0868917 19.5619 0.195698 19.3306ZM9.6161 15.2512L7.50565 10.3938L5.3954 15.2512H9.6161Z" fill="#FF6B00"/>
<path d="M17.2307 18.0188V17.9759C17.2307 15.4651 19.1749 14.3062 21.949 14.3062C23.1287 14.3062 23.9807 14.4994 24.8108 14.7784V14.5852C24.8108 13.2331 23.9588 12.4821 22.2987 12.4821C21.3812 12.4821 20.6385 12.6108 20.0051 12.804C19.8086 12.8685 19.6774 12.8898 19.5243 12.8898C18.76 12.8898 18.1484 12.3103 18.1484 11.5593C18.1484 10.9798 18.5197 10.4862 19.0438 10.2931C20.0924 9.90679 21.2283 9.69226 22.7792 9.69226C24.5922 9.69226 25.9029 10.1643 26.733 10.9798C27.6068 11.8383 27.9999 13.1045 27.9999 14.6496V19.8859C27.9999 20.7659 27.2792 21.4526 26.3834 21.4526C25.4223 21.4526 24.7889 20.7874 24.7889 20.1006V20.0792C23.9807 20.959 22.8665 21.5384 21.2502 21.5384C19.0437 21.5382 17.2307 20.2936 17.2307 18.0188ZM24.8543 17.2676V16.6882C24.2864 16.4307 23.5437 16.259 22.7355 16.259C21.3155 16.259 20.4419 16.8169 20.4419 17.847V17.8899C20.4419 18.7699 21.1846 19.2849 22.2549 19.2849C23.8058 19.2849 24.8543 18.4481 24.8543 17.2676Z" fill="#FF6B00"/>
</svg>
