<svg width="28" height="28" viewBox="0 0 28 28" fill="none" xmlns="http://www.w3.org/2000/svg">
<path fill-rule="evenodd" clip-rule="evenodd" d="M17.2981 24.5L10.7018 24.5C6.83545 24.5 3.70178 21.3663 3.70178 17.5L3.70178 10.5C3.70178 6.63367 6.83545 3.5 10.7018 3.5L17.297 3.5C21.1633 3.5 24.297 6.63367 24.297 10.5L24.297 17.5C24.2981 21.3663 21.1633 24.5 17.2981 24.5Z" stroke="#FF4D00" stroke-width="1.5" stroke-linecap="round" stroke-linejoin="round"/>
<path d="M15.2052 24.5003L15.2052 22.2288C15.2052 18.3624 18.3389 15.2288 22.2052 15.2288L24.2982 15.2288" stroke="#FF4D00" stroke-width="1.5" stroke-linecap="round" stroke-linejoin="round"/>
<path d="M11.6666 11.6666L11.6666 12.8333" stroke="#FF4D00" stroke-width="1.5" stroke-linecap="round" stroke-linejoin="round"/>
<path d="M16.3334 11.6666L16.3334 12.8333" stroke="#FF4D00" stroke-width="1.5" stroke-linecap="round" stroke-linejoin="round"/>
<path d="M16.5491 18.1172C15.8841 18.4147 15.0301 18.6667 14 18.6667C11.4473 18.6667 9.91663 17.136 9.91663 17.136" stroke="#FF4D00" stroke-width="1.5" stroke-linecap="round" stroke-linejoin="round"/>
</svg>
