<svg width="38" height="40" viewBox="0 0 38 40" fill="none" xmlns="http://www.w3.org/2000/svg">
<path fill-rule="evenodd" clip-rule="evenodd" d="M32.1646 32.1646C35.5743 28.7549 37.6832 24.0446 37.6832 18.8416C37.6832 8.43567 29.2475 0 18.8416 0C8.43567 0 0 8.43567 0 18.8416C0 26.7351 4.854 33.4949 11.7399 36.299C14.9533 37.6075 18.401 38.2632 21.8359 38.9165C23.1736 39.171 24.5094 39.425 25.8287 39.7172C26.9257 39.9601 27.8056 40.0797 28.1284 39.9416C28.8633 39.6273 29.0545 38.2285 29.2443 36.8401C29.4159 35.5846 29.5863 34.3376 30.1565 33.9087C30.8665 33.3747 31.5376 32.7916 32.1646 32.1646ZM24.8147 17.2224C24.8147 16.4239 25.4621 15.7766 26.2606 15.7766C27.0591 15.7766 27.7064 16.4239 27.7064 17.2224V20.4608C27.7064 21.2593 27.0591 21.9066 26.2606 21.9066C25.4621 21.9066 24.8147 21.2593 24.8147 20.4608V17.2224ZM18.8417 13.7158C18.0432 13.7158 17.3959 14.3631 17.3959 15.1616V22.5216C17.3959 23.3201 18.0432 23.9674 18.8417 23.9674C19.6402 23.9674 20.2875 23.3201 20.2875 22.5216L20.2875 15.1616C20.2875 14.3631 19.6402 13.7158 18.8417 13.7158ZM9.97699 17.2224C9.97699 16.4239 10.6243 15.7766 11.4228 15.7766C12.2213 15.7766 12.8687 16.4239 12.8687 17.2224V20.4608C12.8687 21.2593 12.2213 21.9066 11.4228 21.9066C10.6243 21.9066 9.97699 21.2593 9.97699 20.4608L9.97699 17.2224Z" fill="white"/>
</svg>
