<svg width="28" height="28" viewBox="0 0 28 28" fill="none" xmlns="http://www.w3.org/2000/svg">
<path d="M20.3525 14.9076L23.0743 12.1858C25.0786 10.1814 25.0786 6.93111 23.0743 4.92561C21.07 2.92128 17.8196 2.92128 15.8141 4.92561L13.0923 7.64745" fill="white" fill-opacity="0.05"/>
<path d="M20.3525 14.9076L23.0743 12.1858C25.0786 10.1814 25.0786 6.93111 23.0743 4.92561C21.07 2.92128 17.8196 2.92128 15.8141 4.92561L13.0923 7.64745" stroke="#FF7A00" stroke-width="1.5" stroke-linecap="round" stroke-linejoin="round"/>
<path d="M10.3717 17.6284L17.6284 10.3717L10.3717 17.6284Z" fill="white" fill-opacity="0.05"/>
<path d="M10.3717 17.6284L17.6284 10.3717" stroke="#FF7A00" stroke-width="1.5" stroke-linecap="round" stroke-linejoin="round"/>
<path d="M7.64745 13.0923L4.92561 15.8141C2.92128 17.8185 2.92128 21.0688 4.92561 23.0743C6.92995 25.0786 10.1803 25.0786 12.1858 23.0743L14.9076 20.3525" fill="white" fill-opacity="0.05"/>
<path d="M7.64745 13.0923L4.92561 15.8141C2.92128 17.8185 2.92128 21.0688 4.92561 23.0743C6.92995 25.0786 10.1803 25.0786 12.1858 23.0743L14.9076 20.3525" stroke="#FF7A00" stroke-width="1.5" stroke-linecap="round" stroke-linejoin="round"/>
</svg>
