<svg width="19" height="19" viewBox="0 0 19 19" fill="none" xmlns="http://www.w3.org/2000/svg">
<path fill-rule="evenodd" clip-rule="evenodd" d="M5.87601 15.691C6.2101 15.691 6.48164 15.9626 6.48164 16.2967C6.48164 16.6307 6.2101 16.9015 5.87601 16.9015C5.54193 16.9015 5.27118 16.6307 5.27118 16.2967C5.27118 15.9626 5.54193 15.691 5.87601 15.691Z" stroke="#FF9900" stroke-width="1.5" stroke-linecap="round" stroke-linejoin="round"/>
<path fill-rule="evenodd" clip-rule="evenodd" d="M14.7842 15.691C15.1182 15.691 15.3898 15.9626 15.3898 16.2967C15.3898 16.6307 15.1182 16.9015 14.7842 16.9015C14.4501 16.9015 14.1785 16.6307 14.1785 16.2967C14.1785 15.9626 14.4501 15.691 14.7842 15.691Z" stroke="#FF9900" stroke-width="1.5" stroke-linecap="round" stroke-linejoin="round"/>
<path d="M2.177 2.57288L3.82367 2.85788L4.58604 11.9407C4.64779 12.6809 5.26609 13.2493 6.00867 13.2493H14.6473C15.3567 13.2493 15.9583 12.7284 16.0605 12.0254L16.8118 6.83363C16.9044 6.19317 16.408 5.62 15.7612 5.62H4.08809" stroke="#FF9900" stroke-width="1.5" stroke-linecap="round" stroke-linejoin="round"/>
<path d="M11.1826 8.54598H13.3779" stroke="#FF9900" stroke-width="1.5" stroke-linecap="round" stroke-linejoin="round"/>
</svg>
