<svg width="30" height="30" viewBox="0 0 30 30" fill="none" xmlns="http://www.w3.org/2000/svg">
<path d="M18.5675 8.60951C18.7516 8.41882 18.9719 8.26672 19.2155 8.16209C19.4591 8.05745 19.7211 8.00238 19.9862 8.00008C20.2513 7.99777 20.5141 8.04829 20.7595 8.14867C21.0049 8.24906 21.2278 8.3973 21.4152 8.58476C21.6027 8.77222 21.7509 8.99513 21.8513 9.24049C21.9517 9.48585 22.0022 9.74875 21.9999 10.0138C21.9976 10.2789 21.9425 10.5409 21.8379 10.7845C21.7333 11.0281 21.5812 11.2484 21.3905 11.4326L20.5989 12.2242L17.7758 9.40112L18.5675 8.60951ZM16.3643 10.8126L8 19.177V22H10.823L19.1884 13.6357L16.3643 10.8126Z" fill="black"/>
</svg>
