<svg width="12" height="17" viewBox="0 0 12 17" fill="none" xmlns="http://www.w3.org/2000/svg">
<path fill-rule="evenodd" clip-rule="evenodd" d="M6 0C2.68286 0 0 2.73292 0 6.11197C0 9.75295 3.78857 14.7735 5.34857 16.6857C5.69143 17.1048 6.31714 17.1048 6.66 16.6857C8.21143 14.7735 12 9.75295 12 6.11197C12 2.73292 9.31714 0 6 0ZM1.71429 6.11197C1.71429 3.70211 3.63429 1.74628 6 1.74628C8.36571 1.74628 10.2857 3.70211 10.2857 6.11197C10.2857 8.62661 7.81714 12.3898 6 14.7386C4.21714 12.4073 1.71429 8.60041 1.71429 6.11197ZM3.85714 6.11197C3.85714 7.3169 4.81714 8.29481 6 8.29481C7.18286 8.29481 8.14286 7.3169 8.14286 6.11197C8.14286 4.90704 7.18286 3.92912 6 3.92912C4.81714 3.92912 3.85714 4.90704 3.85714 6.11197Z" fill="white"/>
</svg>
