<svg width="26" height="26" viewBox="0 0 26 26" fill="none" xmlns="http://www.w3.org/2000/svg">
<g clip-path="url(#clip0_530_1703)">
<path d="M12.5418 5.48594V6.08719L12.4931 6.09802C12.4649 6.09802 12.3327 6.11427 12.1984 6.12836C10.9794 6.25942 9.81018 6.68311 8.79022 7.36336C7.96191 7.91803 7.25015 8.62942 6.69505 9.45744C5.96583 10.5485 5.53192 11.8099 5.43566 13.1187C5.33939 14.4275 5.58407 15.7389 6.1458 16.9249C6.19997 17.0364 6.2433 17.1307 6.2433 17.1361C6.2433 17.1361 5.98764 17.2932 5.6713 17.4752C5.47383 17.5879 5.27737 17.7024 5.08197 17.8186C5.0668 17.8294 5.09605 17.8869 5.2943 18.2303C5.37042 18.3658 5.44989 18.4995 5.53264 18.6311C5.73261 18.5209 5.93124 18.4082 6.12847 18.2931C6.45022 18.1057 6.7178 17.954 6.7243 17.954C6.72755 17.954 6.78064 18.0223 6.83914 18.1057C7.37192 18.8453 8.03268 19.4837 8.79022 19.9907C9.3591 20.3671 9.97454 20.6679 10.6211 20.8855C12.1719 21.4009 13.8477 21.4009 15.3986 20.8855C16.0451 20.6686 16.6606 20.3682 17.2294 19.9918C17.9957 19.4795 18.6624 18.8319 19.1967 18.0808C19.265 17.9833 19.3235 17.9053 19.3267 17.9053C19.3289 17.9053 19.5911 18.0548 19.9074 18.2368C20.2237 18.4209 20.4913 18.5726 20.5011 18.5769C20.5151 18.5878 20.5704 18.4957 20.7502 18.1848C20.9582 17.8262 20.9777 17.7829 20.9615 17.7699C20.9506 17.759 20.6852 17.6074 20.37 17.4264C20.1776 17.3169 19.9873 17.2039 19.7991 17.0874C19.7991 17.0874 19.8381 16.9985 19.8857 16.8989C20.5398 15.5005 20.7536 13.9365 20.4989 12.4139C20.3187 11.3567 19.9186 10.3492 19.3246 9.45636C18.8476 8.74283 18.2535 8.11504 17.5674 7.59952C17.2011 7.32348 16.8093 7.08298 16.3974 6.88127C15.5919 6.47469 14.7188 6.21879 13.8212 6.12619L13.5287 6.09586L13.4767 6.08502V4.88252H12.5418V5.48594ZM12.5418 8.84644V10.2006H12.0088C11.7001 10.2006 11.478 10.2006 11.4812 10.2114C11.4921 10.2461 13.0282 13.2177 13.0326 13.2177C13.0369 13.2177 14.5709 10.2461 14.5861 10.2125C14.5882 10.2017 14.3553 10.2017 14.0336 10.2017H13.4767V7.49119H13.5309C13.6945 7.49119 14.1874 7.57352 14.5189 7.65586C14.9455 7.75996 15.3588 7.91262 15.7506 8.11086C16.2034 8.33048 16.6273 8.6052 17.0127 8.92877C17.1915 9.07611 17.6508 9.54302 17.8036 9.73261C18.0311 10.0143 18.2434 10.323 18.4178 10.6296C18.511 10.7943 18.7027 11.1929 18.7753 11.3771C19.3136 12.7335 19.3577 14.236 18.8999 15.6216C18.7959 15.9358 18.6074 16.3832 18.5814 16.3832C18.5673 16.3832 16.4223 15.1482 16.4006 15.1265C16.3866 15.1146 16.4245 15.0399 16.6422 14.6639C16.7831 14.4169 16.9022 14.2111 16.9022 14.2046C16.9022 14.1927 16.9098 14.1927 16.6314 14.1808C16.5209 14.1808 16.4201 14.1699 16.4104 14.1689C16.3996 14.1689 16.2966 14.158 16.1775 14.158C16.0583 14.158 15.9348 14.1472 15.9023 14.145C15.8698 14.145 15.7658 14.1342 15.6683 14.1331C15.573 14.1331 15.4701 14.1223 15.4408 14.1212C15.4116 14.1212 15.2956 14.1104 15.1841 14.1082C15.0714 14.1082 14.962 14.0974 14.9403 14.0974C14.9186 14.0974 14.8125 14.0865 14.702 14.0854C14.5915 14.0854 14.4821 14.0746 14.4593 14.0735C14.4376 14.0735 14.3185 14.0627 14.1961 14.0616C14.0747 14.0616 13.9664 14.0508 13.9577 14.0497C13.9122 14.0389 13.5244 14.0302 13.5244 14.0367C13.5244 14.0367 13.857 14.561 14.2632 15.1926L15.1765 16.6118C15.3346 16.8566 15.3531 16.8826 15.3671 16.8642C15.3758 16.8523 15.5015 16.6367 15.6477 16.3843L15.9131 15.9249L15.9478 15.9455L17.0452 16.5782C17.6281 16.914 18.1047 17.1957 18.1047 17.2011C18.1047 17.2184 17.9314 17.4503 17.7906 17.6236C17.5471 17.9016 17.2873 18.165 17.0127 18.4123C16.7532 18.6274 16.4779 18.8229 16.1894 18.9973C15.9034 19.1604 15.6078 19.3062 15.3043 19.4339C13.8305 20.0186 12.1891 20.0186 10.7153 19.4339C10.4986 19.3472 10.0285 19.1175 9.8313 18.9973C9.54263 18.8231 9.26742 18.6276 9.00797 18.4123C8.74192 18.1746 8.49015 17.9213 8.25397 17.6539C8.1413 17.5218 8.03641 17.3833 7.9398 17.239C7.94197 17.239 8.41972 16.9606 9.00147 16.6248L10.0956 15.9932L10.1325 15.9704L10.3871 16.4114C10.5279 16.654 10.6471 16.862 10.6557 16.8739C10.6676 16.8924 10.6774 16.8848 10.7424 16.7808C10.7814 16.7179 10.8854 16.5533 10.9731 16.42L11.2624 15.9704C11.3859 15.7754 11.7878 15.1514 11.894 14.9889L12.1561 14.5805L12.4324 14.1515C12.4564 14.1169 12.4774 14.0803 12.4952 14.0421C12.4952 14.0313 12.4671 14.0313 12.4053 14.0313C12.3555 14.0313 12.2428 14.0421 12.1561 14.0443C12.0695 14.0443 11.959 14.0551 11.9113 14.0551C11.816 14.0659 11.6524 14.0703 11.4206 14.08C11.3393 14.08 11.2342 14.0909 11.1866 14.0909C11.1389 14.0909 11.0349 14.1017 10.9526 14.1039C10.8041 14.1147 10.6709 14.1169 10.4651 14.1277C10.4022 14.1277 10.2354 14.1385 10.0946 14.145C9.95372 14.1559 9.7858 14.1591 9.72405 14.1624C9.66014 14.1624 9.5583 14.1732 9.49655 14.1732C9.21163 14.1884 9.11847 14.1949 9.11847 14.2024C9.11847 14.2024 9.24088 14.4224 9.39147 14.6824L9.66555 15.1558L9.63305 15.1742C9.5323 15.2392 7.47072 16.4233 7.46205 16.4233C7.44797 16.4233 7.33855 16.1914 7.25622 15.9834C6.91311 15.1275 6.76294 14.2065 6.81639 13.2859C6.8986 11.9819 7.38775 10.7365 8.21497 9.72502C8.36989 9.53652 8.82922 9.06852 9.00797 8.92119C9.41747 8.58211 9.7988 8.33619 10.269 8.10219C10.7023 7.88986 11.0544 7.75877 11.5007 7.64719C11.8366 7.56377 12.2948 7.48686 12.4757 7.48469H12.5418V8.84644ZM9.24197 0.873107L9.05997 1.91744C8.96463 2.47319 8.88122 2.93577 8.8758 2.94336C8.81979 2.97755 8.76022 3.00552 8.69814 3.02677C6.8534 3.77338 5.23451 4.98683 4.00036 6.54803C2.76622 8.10923 1.95924 9.96452 1.65864 11.9318C1.64797 12.0101 1.63351 12.0878 1.6153 12.1647C1.59364 12.2221 1.54597 12.6706 1.5243 13.0584C1.50902 13.4678 1.50902 13.8776 1.5243 14.2869C1.53839 14.5415 1.56005 14.7799 1.5958 15.0843L1.6218 15.2999L1.57522 15.3432C1.45733 15.4532 1.33888 15.5626 1.21989 15.6714L1.00322 15.8697C0.90572 15.9618 0.888386 15.978 0.394386 16.4352C0.179886 16.6302 0.00438647 16.7981 5.31375e-05 16.8035C-0.00319686 16.8035 0.143053 17.07 0.32397 17.3842L2.2068 20.645C2.72253 21.5458 3.24471 22.4428 3.7733 23.336C3.7798 23.336 3.87189 23.3035 3.97914 23.2645L4.48614 23.0793C5.5153 22.7023 5.76664 22.6113 5.7753 22.6113C5.80459 22.6271 5.83186 22.6464 5.85655 22.6687C6.06997 22.8474 6.5943 23.2169 6.93989 23.4314C7.59212 23.8298 8.28057 24.1657 8.99605 24.4345C10.7132 25.0732 12.5578 25.2935 14.377 25.0769C15.3353 24.9608 16.2753 24.7254 17.1752 24.376C17.2901 24.3305 17.3951 24.2915 17.4081 24.2894C17.4721 24.2785 17.8458 24.1084 18.2152 23.921C18.8143 23.6177 19.3386 23.2927 19.889 22.881L20.1143 22.7164L20.175 22.7348L20.2714 22.7651C20.7572 22.9139 21.2421 23.0652 21.7263 23.219C21.7426 23.2299 21.8097 23.2461 21.878 23.2656L22.1087 23.3382C22.1474 23.352 22.1873 23.3621 22.2279 23.3685C22.242 23.3685 26.0044 16.8501 26.0001 16.8393C25.9968 16.8284 25.7726 16.6421 24.8344 15.8599L24.3848 15.484C24.3631 15.4624 24.3631 15.4591 24.387 15.289C24.517 14.3747 24.5321 13.469 24.4357 12.5157C24.2528 10.6967 23.6379 8.94781 22.6422 7.41465C21.6465 5.88149 20.2988 4.60848 18.7114 3.70169C18.2818 3.45921 17.8383 3.24217 17.3832 3.05169C17.3291 3.03002 17.2836 3.00294 17.2814 2.99319C17.2781 2.98236 17.1687 2.50352 17.0398 1.92827L16.7993 0.862273C16.7939 0.843857 16.6043 0.842773 13.0196 0.842773H9.24955L9.24197 0.873107ZM16.1699 1.46894C16.3271 2.1297 16.481 2.79127 16.6314 3.45361C16.6401 3.48611 16.6531 3.49369 16.8621 3.57277C17.3226 3.75152 17.8696 4.00611 18.251 4.21952C19.8091 5.08331 21.1295 6.31897 22.0946 7.8165C23.0597 9.31402 23.6395 11.027 23.7825 12.8028C23.8204 13.2708 23.828 14.1017 23.7955 14.4906C23.7651 14.8644 23.7077 15.3031 23.6406 15.6747L23.6265 15.7538L23.6785 15.8036C23.7683 15.8853 23.8604 15.9644 23.9547 16.0409C23.9612 16.0517 24.0219 16.0983 24.088 16.1514L24.3198 16.3431L24.764 16.7158C25.2114 17.0895 25.18 17.0603 25.1648 17.0841C25.1605 17.0949 24.4498 18.3213 23.5918 19.8098C22.6526 21.438 22.021 22.5181 22.0123 22.5181C22.0015 22.5181 21.9094 22.4921 21.8054 22.4607L21.5746 22.3914C21.2642 22.2999 20.9547 22.2052 20.6462 22.1075C20.6332 22.0967 20.5996 22.0913 20.5704 22.0837C20.5411 22.0729 20.5076 22.0664 20.4946 22.0599C20.4816 22.049 20.435 22.0382 20.3895 22.0274L20.1652 21.9602C20.0244 21.9169 20.0222 21.9169 19.9919 21.9385L19.7969 22.0956C19.5141 22.3231 18.992 22.7023 18.9595 22.7023C18.9195 22.7216 18.8811 22.744 18.8446 22.7694C17.3009 23.7558 15.5332 24.3367 13.7053 24.4584C13.2418 24.4768 12.7778 24.4768 12.3143 24.4584C10.7922 24.3446 9.4543 23.9784 8.14889 23.3209C7.47128 22.9795 6.83086 22.5689 6.23789 22.0956C6.20851 22.0687 6.17658 22.0448 6.14255 22.0241C6.09776 21.9931 6.05539 21.9587 6.0158 21.9212L5.90314 21.8237L5.84897 21.8345C5.6779 21.8855 5.50942 21.9448 5.34414 22.0122C5.1538 22.0835 4.96313 22.1539 4.77214 22.2234L4.19905 22.4325C4.13223 22.4593 4.06427 22.4831 3.99539 22.504C3.98889 22.504 3.27389 21.2755 2.40722 19.774L0.83097 17.044L0.871053 17.0104L1.10289 16.7916L1.37155 16.5392L1.55897 16.3615C1.61964 16.303 1.69764 16.2315 1.7323 16.199L1.84064 16.1015C1.98776 15.9615 2.13582 15.8225 2.2848 15.6844L2.3628 15.6086L2.34655 15.5252C2.28227 15.167 2.23958 14.8052 2.21872 14.4419C2.21872 14.3476 2.21222 14.0952 2.20789 13.8807C2.17145 12.0699 2.59112 10.279 3.42826 8.67283C4.2654 7.0667 5.49311 5.69696 6.99839 4.68969C7.73252 4.19633 8.52509 3.79604 9.35788 3.49802C9.49222 3.45036 9.49872 3.44602 9.50739 3.40919C9.5193 3.36261 9.59513 2.93577 9.73922 2.10702L9.8508 1.47219L9.85622 1.44619H13.0087C16.0041 1.44619 16.1634 1.44619 16.1699 1.46569V1.46894Z" fill="black"/>
</g>
<defs>
<clipPath id="clip0_530_1703">
<rect width="26" height="26" fill="white"/>
</clipPath>
</defs>
</svg>
