<svg width="36" height="28" viewBox="0 0 36 28" fill="none" xmlns="http://www.w3.org/2000/svg">
<path fill-rule="evenodd" clip-rule="evenodd" d="M8.92537 17.807H5.83576L3.51893 10.9525C3.40897 10.6372 3.17547 10.3585 2.83202 10.2271C1.97488 9.89692 1.03037 9.63416 0 9.50164L0 9.23774H4.97712C5.66403 9.23774 6.17922 9.63416 6.26508 10.0946L7.46719 15.0389L10.5553 9.23774H13.559L8.92537 17.807ZM15.2763 17.807H12.3584L14.7611 9.23774H17.679L15.2763 17.807ZM21.454 11.6117C21.5399 11.1502 22.0551 10.8863 22.6561 10.8863C23.6007 10.82 24.6295 10.9526 25.4882 11.2816L26.0033 9.43658C25.1447 9.17268 24.2002 9.04016 23.3431 9.04016C20.511 9.04016 18.4503 10.2271 18.4503 11.8745C18.4503 13.1277 19.91 13.7858 20.9404 14.1822C22.0551 14.5775 22.4844 14.8414 22.3986 15.2366C22.3986 15.8295 21.5399 16.0934 20.6828 16.0934C19.6524 16.0934 18.622 15.8958 17.679 15.5656L17.1638 17.4118C18.1942 17.7408 19.3089 17.8733 20.3393 17.8733C23.5148 17.9384 25.4882 16.7526 25.4882 14.9727C25.4882 12.7313 21.454 12.5999 21.454 11.6117ZM35.7 17.807L33.3832 9.23774H30.8946C30.3794 9.23774 29.8642 9.50164 29.6925 9.89692L25.4023 17.807H28.406L29.0056 16.5549H32.6962L33.0397 17.807H35.7ZM31.3239 11.5456L32.181 14.7752H29.7783L31.3239 11.5456Z" fill="#1434CB"/>
</svg>
