<svg width="31" height="31" viewBox="0 0 31 31" fill="none" xmlns="http://www.w3.org/2000/svg">
<mask id="path-1-inside-1_0_22" fill="white">
<path fill-rule="evenodd" clip-rule="evenodd" d="M10.5976 29.0958V24.3423C10.5976 23.1333 11.6099 22.1508 12.8641 22.1427H17.4585C18.7187 22.1427 19.7403 23.1275 19.7403 24.3423V29.1105C19.74 30.137 20.59 30.976 21.6546 31.0001H24.7175C27.7708 31.0001 30.246 28.6141 30.246 25.6709V12.1487C30.2297 10.9908 29.6657 9.90352 28.7146 9.19623L18.2395 1.06222C16.4044 -0.354073 13.7957 -0.354073 11.9606 1.06222L1.53144 9.21099C0.576678 9.91541 0.0117588 11.0045 0 12.1634V25.6709C0 28.6141 2.4752 31.0001 5.52851 31.0001H8.5914C9.68248 31.0001 10.567 30.1475 10.567 29.0958"/>
</mask>
<path d="M9.08948 29.0958C9.08948 29.9287 9.76469 30.6039 10.5976 30.6039C11.4305 30.6039 12.1057 29.9287 12.1057 29.0958H9.08948ZM10.5976 24.3423H12.1057V24.3423L10.5976 24.3423ZM12.8641 22.1427V20.6346L12.8544 20.6346L12.8641 22.1427ZM21.2484 24.3423C21.2484 23.5094 20.5732 22.8342 19.7403 22.8342C18.9074 22.8342 18.2322 23.5094 18.2322 24.3423H21.2484ZM19.7403 29.1105L21.2484 29.1109V29.1105H19.7403ZM21.6546 31.0001L21.6206 32.5078C21.6319 32.5081 21.6433 32.5082 21.6546 32.5082V31.0001ZM24.7175 31.0001V29.492V31.0001ZM28.7379 25.6709C28.7379 26.5038 29.4131 27.179 30.246 27.179C31.0789 27.179 31.7541 26.5038 31.7541 25.6709H28.7379ZM30.246 12.1487H31.7541C31.7541 12.1416 31.7541 12.1345 31.754 12.1274L30.246 12.1487ZM28.7146 9.19623L27.7896 10.3874C27.7979 10.3938 27.8063 10.4002 27.8147 10.4064L28.7146 9.19623ZM18.2395 1.06222L19.1645 -0.128949L19.1609 -0.131678L18.2395 1.06222ZM11.9606 1.06222L11.0391 -0.131699L11.032 -0.126154L11.9606 1.06222ZM1.53144 9.21099L2.42681 10.4245C2.43798 10.4163 2.44904 10.4079 2.45998 10.3994L1.53144 9.21099ZM0 12.1634L-1.50803 12.1481C-1.50809 12.1532 -1.50811 12.1583 -1.50811 12.1634H0ZM12.1057 29.0958V24.3423H9.08948V29.0958H12.1057ZM12.1057 24.3423C12.1057 24.0136 12.3966 23.6539 12.8739 23.6508L12.8544 20.6346C10.8232 20.6478 9.08943 22.253 9.08948 24.3423L12.1057 24.3423ZM12.8641 23.6508H17.4585V20.6346H12.8641V23.6508ZM17.4585 23.6508C17.9385 23.6508 18.2322 24.0121 18.2322 24.3423H21.2484C21.2484 22.2429 19.4989 20.6346 17.4585 20.6346V23.6508ZM18.2322 24.3423V29.1105H21.2484V24.3423H18.2322ZM18.2322 29.1101C18.2317 31.0064 19.7872 32.4664 21.6206 32.5078L21.6887 29.4924C21.3927 29.4857 21.2484 29.2677 21.2484 29.1109L18.2322 29.1101ZM21.6546 32.5082H24.7175V29.492H21.6546V32.5082ZM24.7175 32.5082C28.5511 32.5082 31.7541 29.4988 31.7541 25.6709H28.7379C28.7379 27.7295 26.9906 29.492 24.7175 29.492V32.5082ZM31.7541 25.6709V12.1487H28.7379V25.6709H31.7541ZM31.754 12.1274C31.7309 10.4874 30.9319 8.96567 29.6145 7.98604L27.8147 10.4064C28.3996 10.8414 28.7285 11.4942 28.7381 12.1699L31.754 12.1274ZM29.6395 8.00506L19.1645 -0.128943L17.3146 2.25338L27.7896 10.3874L29.6395 8.00506ZM19.1609 -0.131678C16.783 -1.96692 13.4171 -1.96692 11.0392 -0.131678L12.882 2.25612C14.1743 1.25878 16.0258 1.25878 17.3181 2.25612L19.1609 -0.131678ZM11.032 -0.126154L0.602913 8.02261L2.45998 10.3994L12.8891 2.25059L11.032 -0.126154ZM0.636083 7.99743C-0.689045 8.9751 -1.49134 10.5027 -1.50803 12.1481L1.50803 12.1787C1.51486 11.5063 1.8424 10.8557 2.42681 10.4245L0.636083 7.99743ZM-1.50811 12.1634V25.6709H1.50811V12.1634H-1.50811ZM-1.50811 25.6709C-1.50811 29.4988 1.69497 32.5082 5.52851 32.5082V29.492C3.25543 29.492 1.50811 27.7295 1.50811 25.6709H-1.50811ZM5.52851 32.5082H8.5914V29.492H5.52851V32.5082ZM8.5914 32.5082C10.4627 32.5082 12.0751 31.0321 12.0751 29.0958H9.05885C9.05885 29.2629 8.90225 29.492 8.5914 29.492V32.5082Z" fill="#FF7A00" mask="url(#path-1-inside-1_0_22)"/>
</svg>
