<svg width="26" height="30" viewBox="0 0 26 30" fill="none" xmlns="http://www.w3.org/2000/svg">
<mask id="path-1-inside-1_807_2064" fill="white">
<path fill-rule="evenodd" clip-rule="evenodd" d="M9.10987 28.1571V23.557C9.10985 22.387 9.98006 21.4362 11.0582 21.4284H15.0076C16.0909 21.4284 16.9691 22.3814 16.9691 23.557V28.1714C16.9689 29.1648 17.6995 29.9767 18.6147 30H21.2476C23.8723 30 26 27.691 26 24.8427V11.7568C25.986 10.6362 25.5012 9.58402 24.6835 8.89955L15.679 1.02795C14.1015 -0.342651 11.859 -0.342651 10.2815 1.02795L1.31646 8.91383C0.495722 9.59553 0.0101081 10.6495 0 11.771V24.8427C0 27.691 2.12772 30 4.75241 30H7.38532C8.32322 30 9.08354 29.1749 9.08354 28.1571"/>
</mask>
<path d="M7.60987 28.1571C7.60987 28.9855 8.28145 29.6571 9.10987 29.6571C9.9383 29.6571 10.6099 28.9855 10.6099 28.1571H7.60987ZM9.10987 23.557H10.6099V23.557L9.10987 23.557ZM11.0582 21.4284V19.9283L11.0473 19.9284L11.0582 21.4284ZM18.4691 23.557C18.4691 22.7286 17.7975 22.057 16.9691 22.057C16.1407 22.057 15.4691 22.7286 15.4691 23.557H18.4691ZM16.9691 28.1714L18.4691 28.1718V28.1714H16.9691ZM18.6147 30L18.5765 31.4995C18.5892 31.4998 18.602 31.5 18.6147 31.5V30ZM21.2476 30V28.5V30ZM24.5 24.8427C24.5 25.6712 25.1716 26.3427 26 26.3427C26.8284 26.3427 27.5 25.6712 27.5 24.8427H24.5ZM26 11.7568H27.5C27.5 11.7505 27.5 11.7442 27.4999 11.738L26 11.7568ZM24.6835 8.89955L23.6963 10.0289C23.7044 10.0359 23.7125 10.0429 23.7207 10.0497L24.6835 8.89955ZM15.679 1.02795L16.6662 -0.101378L16.6628 -0.10436L15.679 1.02795ZM10.2815 1.02795L9.2977 -0.104381L9.29082 -0.0983287L10.2815 1.02795ZM1.31646 8.91383L2.27487 10.0677C2.28576 10.0587 2.29653 10.0495 2.30716 10.0401L1.31646 8.91383ZM0 11.771L-1.5 11.7575V11.771H0ZM10.6099 28.1571V23.557H7.60987V28.1571H10.6099ZM10.6099 23.557C10.6099 23.0946 10.927 22.9294 11.0692 22.9283L11.0473 19.9284C9.03311 19.9431 7.60983 21.6793 7.60987 23.557L10.6099 23.557ZM11.0582 22.9284H15.0076V19.9284H11.0582V22.9284ZM15.0076 22.9284C15.0934 22.9284 15.1946 22.9632 15.2915 23.0683C15.3903 23.1756 15.4691 23.3445 15.4691 23.557H18.4691C18.4691 21.6708 17.0324 19.9284 15.0076 19.9284V22.9284ZM15.4691 23.557V28.1714H18.4691V23.557H15.4691ZM15.4691 28.171C15.4687 29.8647 16.7391 31.4528 18.5765 31.4995L18.6528 28.5005C18.6431 28.5002 18.6101 28.4978 18.5636 28.4461C18.5154 28.3926 18.4691 28.2992 18.4691 28.1718L15.4691 28.171ZM18.6147 31.5H21.2476V28.5H18.6147V31.5ZM21.2476 31.5C24.8138 31.5 27.5 28.4016 27.5 24.8427H24.5C24.5 26.9804 22.9307 28.5 21.2476 28.5V31.5ZM27.5 24.8427V11.7568H24.5V24.8427H27.5ZM27.4999 11.738C27.4807 10.2055 26.8185 8.73055 25.6464 7.74938L23.7207 10.0497C24.1839 10.4375 24.4913 11.067 24.5001 11.7755L27.4999 11.738ZM25.6708 7.77022L16.6662 -0.101373L14.6918 2.15728L23.6963 10.0289L25.6708 7.77022ZM16.6628 -0.10436C14.521 -1.96521 11.4395 -1.96521 9.29772 -0.10436L11.2653 2.16026C12.2786 1.27991 13.6819 1.27991 14.6952 2.16026L16.6628 -0.10436ZM9.29082 -0.0983287L0.325753 7.78755L2.30716 10.0401L11.2722 2.15423L9.29082 -0.0983287ZM0.358044 7.75995C-0.821559 8.73973 -1.48609 10.2206 -1.49994 11.7575L1.49994 11.7846C1.5063 11.0784 1.813 10.4513 2.27487 10.0677L0.358044 7.75995ZM-1.5 11.771V24.8427H1.5V11.771H-1.5ZM-1.5 24.8427C-1.5 28.4016 1.1862 31.5 4.75241 31.5V28.5C3.06925 28.5 1.5 26.9804 1.5 24.8427H-1.5ZM4.75241 31.5H7.38532V28.5H4.75241V31.5ZM7.38532 31.5C9.26475 31.5 10.5835 29.8855 10.5835 28.1571H7.58354C7.58354 28.2907 7.53424 28.3882 7.48307 28.4437C7.43381 28.4972 7.39837 28.5 7.38532 28.5V31.5Z" fill="#FF7A00" mask="url(#path-1-inside-1_807_2064)"/>
</svg>
