<svg width="10" height="6" viewBox="0 0 10 6" fill="none" xmlns="http://www.w3.org/2000/svg">
<path fill-rule="evenodd" clip-rule="evenodd" d="M9.60898 0.175677C9.74052 0.288196 9.81441 0.440785 9.81441 0.599888C9.81441 0.758991 9.74052 0.911579 9.60898 1.0241L3.99573 5.82423C3.86415 5.93671 3.68571 5.9999 3.49966 5.9999C3.3136 5.9999 3.13517 5.93671 3.00359 5.82423L0.196963 3.42416C0.0691508 3.311 -0.00157214 3.15943 2.65244e-05 3.00211C0.00162519 2.84479 0.0754176 2.6943 0.20551 2.58305C0.335603 2.4718 0.511587 2.4087 0.695559 2.40733C0.879531 2.40596 1.05677 2.46644 1.1891 2.57574L3.49966 4.55159L8.61683 0.175677C8.74841 0.063191 8.92685 0 9.1129 0C9.29896 0 9.4774 0.063191 9.60898 0.175677Z" fill="#281F17"/>
</svg>
