<svg width="19" height="33" viewBox="0 0 19 33" fill="none" xmlns="http://www.w3.org/2000/svg">
<rect width="19.0001" height="32.8523" rx="9.36923" fill="white"/>
<path fill-rule="evenodd" clip-rule="evenodd" d="M8.56851 16.4322L8.56935 16.7554C8.57574 18.0371 8.62044 19.1806 8.6975 19.9053C8.6975 19.9183 8.78157 20.6371 8.83509 20.8762C8.91916 21.2221 9.07116 21.5156 9.26174 21.7016C9.41433 21.8342 9.57435 21.9016 9.74192 21.9016C9.8736 21.891 10.0908 21.7765 10.2458 21.6804L10.3747 21.595C11.2279 21.0089 12.859 19.094 13.4837 17.923L13.5298 17.8411L13.7353 17.4576C13.8649 17.164 13.9334 16.8052 13.9334 16.4192C13.9334 16.0734 13.8724 15.7275 13.7503 15.4481C13.7138 15.3576 13.6549 15.2414 13.6025 15.1433L13.4024 14.7812C12.8682 13.8453 11.851 12.617 11.061 11.8516C10.6962 11.4982 10.249 10.9798 9.74192 10.9508H9.71141C9.36076 10.9508 9.03316 11.2966 8.86559 11.8555C8.81983 12.0083 8.77592 12.3076 8.74257 12.5705L8.68251 13.0668C8.614 13.8649 8.56851 15.0893 8.56851 16.4322ZM6.20293 15.1899C5.55307 15.0906 4.78123 15.0665 4.55651 15.6843C4.47852 15.8987 4.43335 16.1531 4.43335 16.4258C4.43335 16.6986 4.47852 16.953 4.55652 17.1674C4.78125 17.7852 5.55307 17.7611 6.20293 17.6617C6.85278 17.5623 7.62694 17.4462 7.76307 16.803C7.78793 16.6856 7.8015 16.5585 7.8015 16.4258C7.8015 16.2933 7.78791 16.1662 7.76301 16.0487C7.62671 15.4056 6.85278 15.2893 6.20293 15.1899Z" fill="black"/>
</svg>
