<svg width="32" height="32" viewBox="0 0 32 32" fill="none" xmlns="http://www.w3.org/2000/svg">
<path d="M30.9999 15.1667C31.0057 17.3665 30.4917 19.5365 29.4999 21.5C28.324 23.8529 26.5162 25.832 24.279 27.2155C22.0419 28.599 19.4637 29.3323 16.8333 29.3333C14.6335 29.3391 12.4635 28.8251 10.5 27.8333L0.999998 31L4.16666 21.5C3.17488 19.5365 2.66093 17.3665 2.66666 15.1667C2.66768 12.5363 3.40101 9.95811 4.78452 7.72095C6.16803 5.48379 8.14708 3.67599 10.5 2.50004C12.4635 1.50826 14.6335 0.99431 16.8333 1.00005H17.6666C21.1405 1.1917 24.4217 2.65798 26.8819 5.11814C29.342 7.5783 30.8083 10.8594 30.9999 14.3334V15.1667Z" fill="#F1890F" stroke="#E39801" stroke-width="2" stroke-linecap="round" stroke-linejoin="round"/>
</svg>
