<svg width="13" height="18" viewBox="0 0 13 18" fill="none" xmlns="http://www.w3.org/2000/svg">
<path fill-rule="evenodd" clip-rule="evenodd" d="M9.03314 17.2423H3.80451C1.88391 17.2423 0.410493 16.2926 0.829012 12.4699L1.31633 7.2893C1.57432 5.38189 2.46296 4.65191 3.24267 4.65191H9.61796C10.4091 4.65191 11.2461 5.43685 11.5443 7.2893L12.0316 12.4699C12.387 15.8609 10.9538 17.2423 9.03314 17.2423Z" stroke="white" stroke-width="1.5" stroke-linecap="round" stroke-linejoin="round"/>
<path d="M9.11919 4.46252C9.11919 2.41635 7.90764 0.757596 6.41312 0.757596C5.69345 0.753428 5.00221 1.14192 4.49225 1.83718C3.98229 2.53244 3.69561 3.47719 3.69561 4.46252" stroke="white" stroke-width="1.5" stroke-linecap="round" stroke-linejoin="round"/>
<path d="M8.2706 8.3248H8.24198" stroke="white" stroke-width="1.5" stroke-linecap="round" stroke-linejoin="round"/>
<path d="M4.61869 8.3248H4.59003" stroke="white" stroke-width="1.5" stroke-linecap="round" stroke-linejoin="round"/>
</svg>
