<svg width="28" height="28" viewBox="0 0 28 28" fill="none" xmlns="http://www.w3.org/2000/svg">
<path fill-rule="evenodd" clip-rule="evenodd" d="M14.4515 14.431L16.463 14.028C16.7537 13.9708 17.0214 13.8291 17.2322 13.6207L23.106 7.75121C23.8934 6.96327 23.8934 5.68627 23.106 4.89833C22.3181 4.11087 21.0411 4.11087 20.2531 4.89833L14.3792 10.7679C14.1693 10.9781 14.0261 11.2458 13.9677 11.5371L13.5691 13.5485C13.5222 13.794 13.5999 14.0467 13.7766 14.2234C13.9533 14.4002 14.2061 14.4778 14.4515 14.431Z" stroke="#FC9700" stroke-opacity="0.99" stroke-width="1.5" stroke-linecap="round" stroke-linejoin="round"/>
<path d="M11.1611 16.6116C14.5268 19.9773 19.1337 20.8305 21.4447 18.5163C23.3925 16.5685 23.0898 13.0002 20.9405 9.91248" stroke="#FC9700" stroke-opacity="0.99" stroke-width="1.5" stroke-linecap="round" stroke-linejoin="round"/>
<path d="M18.1371 7.00997C14.0894 3.89636 9.02791 3.50743 6.20843 6.32691C3.05281 9.48253 3.90609 15.4512 8.11323 19.6583C9.95537 21.5308 12.2324 22.9181 14.7412 23.6962" stroke="#FF4D00" stroke-width="1.5" stroke-linecap="round" stroke-linejoin="round"/>
</svg>
