<svg width="21" height="22" viewBox="0 0 21 22" fill="none" xmlns="http://www.w3.org/2000/svg">
<path d="M20.9413 10.7907C20.8851 10.9277 20.7895 11.045 20.6667 11.1277C20.5439 11.2105 20.3993 11.2551 20.2513 11.2558H18.001V18.7568C18.001 19.3536 17.7639 19.926 17.3419 20.348C16.9199 20.77 16.3475 21.0071 15.7507 21.0071H12.7503C12.5514 21.0071 12.3606 20.928 12.2199 20.7874C12.0792 20.6467 12.0002 20.4559 12.0002 20.257V15.7564C12.0002 15.5574 11.9212 15.3667 11.7805 15.226C11.6398 15.0853 11.449 15.0063 11.2501 15.0063H9.7499C9.55096 15.0063 9.36017 15.0853 9.2195 15.226C9.07883 15.3667 8.9998 15.5574 8.9998 15.7564V20.257C8.9998 20.4559 8.92078 20.6467 8.78011 20.7874C8.63944 20.928 8.44865 21.0071 8.24971 21.0071H5.24932C4.6525 21.0071 4.08013 20.77 3.65812 20.348C3.23611 19.926 2.99903 19.3536 2.99903 18.7568V11.2558H0.748737C0.600649 11.2551 0.456093 11.2105 0.333287 11.1277C0.21048 11.045 0.11492 10.9277 0.0586473 10.7907C0.00120533 10.6541 -0.0144887 10.5036 0.0135455 10.3581C0.0415797 10.2126 0.112086 10.0786 0.216168 9.97314L9.96743 0.221877C10.0372 0.151572 10.1201 0.0957691 10.2115 0.0576877C10.3029 0.0196062 10.401 0 10.5 0C10.599 0 10.6971 0.0196062 10.7885 0.0576877C10.8799 0.0957691 10.9628 0.151572 11.0326 0.221877L20.7838 9.97314C20.8879 10.0786 20.9584 10.2126 20.9865 10.3581C21.0145 10.5036 20.9988 10.6541 20.9413 10.7907Z" fill="#C5C5C5"/>
</svg>
