<svg width="28" height="28" viewBox="0 0 28 28" fill="none" xmlns="http://www.w3.org/2000/svg">
<path fill-rule="evenodd" clip-rule="evenodd" d="M7.53581 4.30347C7.53581 6.68353 5.60638 8.61296 3.22632 8.61296C5.60638 8.61296 7.53581 10.5424 7.53581 12.9224C7.53581 10.5424 9.46523 8.61296 11.8453 8.61296C9.46523 8.61296 7.53581 6.68353 7.53581 4.30347Z" fill="white" stroke="#FF4D00" stroke-width="1.5" stroke-linecap="round" stroke-linejoin="round"/>
<path fill-rule="evenodd" clip-rule="evenodd" d="M19.3869 17.2321C19.3869 14.2571 16.9751 11.8453 14 11.8453C16.9751 11.8453 19.3869 9.43345 19.3869 6.45837C19.3869 9.43345 21.7986 11.8453 24.7738 11.8453C21.7986 11.8453 19.3869 14.2571 19.3869 17.2321Z" fill="white" stroke="#FF4D00" stroke-width="1.5" stroke-linecap="round" stroke-linejoin="round"/>
<path d="M19.3868 17.2318V18.3092V17.2318Z" fill="white"/>
<path d="M19.3868 17.2318V18.3092" stroke="#FF4D00" stroke-width="1.5" stroke-linecap="round" stroke-linejoin="round"/>
<path d="M19.3868 6.45884V5.38147V6.45884Z" fill="white"/>
<path d="M19.3868 6.45884V5.38147" stroke="#FF4D00" stroke-width="1.5" stroke-linecap="round" stroke-linejoin="round"/>
<path d="M11.8453 23.6965V24.7739V23.6965Z" fill="white"/>
<path d="M11.8453 23.6965V24.7739" stroke="#FF4D00" stroke-width="1.5" stroke-linecap="round" stroke-linejoin="round"/>
<path d="M11.8453 16.1554V15.078V16.1554Z" fill="white"/>
<path d="M11.8453 16.1554V15.078" stroke="#FF4D00" stroke-width="1.5" stroke-linecap="round" stroke-linejoin="round"/>
<path d="M7.53577 12.9231V14.0004V12.9231Z" fill="white"/>
<path d="M7.53577 12.9231V14.0004" stroke="#FF4D00" stroke-width="1.5" stroke-linecap="round" stroke-linejoin="round"/>
<path d="M7.53577 3.22656V4.30394V3.22656Z" fill="white"/>
<path d="M7.53577 3.22656V4.30394" stroke="#FF4D00" stroke-width="1.5" stroke-linecap="round" stroke-linejoin="round"/>
<path fill-rule="evenodd" clip-rule="evenodd" d="M11.8453 15.6165C11.8453 17.9965 9.91583 19.9259 7.53577 19.9259C9.91583 19.9259 11.8453 21.8554 11.8453 24.2354C11.8453 21.8554 13.7747 19.9259 16.1547 19.9259C13.7747 19.9259 11.8453 17.9965 11.8453 15.6165Z" fill="white" stroke="#FF4D00" stroke-width="1.5" stroke-linecap="round" stroke-linejoin="round"/>
</svg>
