<svg width="24" height="24" viewBox="0 0 24 24" fill="none" xmlns="http://www.w3.org/2000/svg">
<rect width="24" height="24" fill="black"/>
<mask id="path-1-inside-1_719_2102" fill="white">
<path fill-rule="evenodd" clip-rule="evenodd" d="M9.15722 20.7714V17.7047C9.1572 16.9246 9.79312 16.2908 10.581 16.2856H13.4671C14.2587 16.2856 14.9005 16.9209 14.9005 17.7047V20.7809C14.9003 21.4432 15.4343 21.9845 16.103 22H18.0271C19.9451 22 21.5 20.4607 21.5 18.5618V9.83784C21.4898 9.09083 21.1355 8.38935 20.538 7.93303L13.9577 2.6853C12.8049 1.77157 11.1662 1.77157 10.0134 2.6853L3.46203 7.94256C2.86226 8.39702 2.50739 9.09967 2.5 9.84736V18.5618C2.5 20.4607 4.05488 22 5.97291 22H7.89696C8.58235 22 9.13797 21.4499 9.13797 20.7714"/>
</mask>
<path d="M7.65722 20.7714C7.65722 21.5998 8.32879 22.2714 9.15722 22.2714C9.98564 22.2714 10.6572 21.5998 10.6572 20.7714H7.65722ZM9.15722 17.7047H10.6572V17.7046L9.15722 17.7047ZM10.581 16.2856V14.7856L10.571 14.7856L10.581 16.2856ZM16.4005 17.7047C16.4005 16.8762 15.7289 16.2047 14.9005 16.2047C14.0721 16.2047 13.4005 16.8762 13.4005 17.7047H16.4005ZM14.9005 20.7809L16.4005 20.7813V20.7809H14.9005ZM16.103 22L16.0682 23.4996C16.0798 23.4999 16.0914 23.5 16.103 23.5V22ZM18.0271 22V20.5V22ZM20 18.5618C20 19.3903 20.6716 20.0618 21.5 20.0618C22.3284 20.0618 23 19.3903 23 18.5618H20ZM21.5 9.83784H23C23 9.83098 23 9.82413 22.9999 9.81727L21.5 9.83784ZM20.538 7.93303L19.6027 9.10577C19.6109 9.11231 19.6192 9.11877 19.6276 9.12514L20.538 7.93303ZM13.9577 2.6853L14.893 1.51256L14.8895 1.50978L13.9577 2.6853ZM10.0134 2.6853L9.08165 1.50976L9.07462 1.51541L10.0134 2.6853ZM3.46203 7.94256L4.36794 9.1381C4.37902 9.1297 4.38998 9.12115 4.40082 9.11245L3.46203 7.94256ZM2.5 9.84736L1.00007 9.83254C1.00002 9.83748 1 9.84242 1 9.84736H2.5ZM10.6572 20.7714V17.7047H7.65722V20.7714H10.6572ZM10.6572 17.7046C10.6572 17.7152 10.6547 17.7287 10.6493 17.7414C10.6443 17.7532 10.6381 17.7614 10.6325 17.767C10.621 17.7785 10.604 17.7855 10.591 17.7856L10.571 14.7856C8.97273 14.7962 7.65718 16.0861 7.65722 17.7047L10.6572 17.7046ZM10.581 17.7856H13.4671V14.7856H10.581V17.7856ZM13.4671 17.7856C13.454 17.7856 13.437 17.7787 13.4254 17.7672C13.4197 17.7617 13.4135 17.7534 13.4085 17.7416C13.403 17.7288 13.4005 17.7153 13.4005 17.7047H16.4005C16.4005 16.0783 15.0729 14.7856 13.4671 14.7856V17.7856ZM13.4005 17.7047V20.7809H16.4005V17.7047H13.4005ZM13.4005 20.7805C13.4001 22.2715 14.5984 23.4655 16.0682 23.4996L16.1378 20.5004C16.2701 20.5035 16.4006 20.6149 16.4005 20.7813L13.4005 20.7805ZM16.103 23.5H18.0271V20.5H16.103V23.5ZM18.0271 23.5C20.7593 23.5 23 21.3033 23 18.5618H20C20 19.6181 19.131 20.5 18.0271 20.5V23.5ZM23 18.5618V9.83784H20V18.5618H23ZM22.9999 9.81727C22.9833 8.60658 22.409 7.47455 21.4484 6.74092L19.6276 9.12514C19.8619 9.30415 19.9963 9.57507 20.0001 9.8584L22.9999 9.81727ZM21.4732 6.7603L14.893 1.51257L13.0225 3.85803L19.6027 9.10577L21.4732 6.7603ZM14.8895 1.50978C13.1909 0.163405 10.7803 0.163405 9.08167 1.50978L10.9452 3.86082C11.5521 3.37973 12.419 3.37973 13.026 3.86082L14.8895 1.50978ZM9.07462 1.51541L2.52323 6.77266L4.40082 9.11245L10.9522 3.8552L9.07462 1.51541ZM2.55612 6.74701C1.58905 7.4798 1.01208 8.61707 1.00007 9.83254L3.99993 9.86218C4.00269 9.58226 4.13547 9.31425 4.36794 9.1381L2.55612 6.74701ZM1 9.84736V18.5618H4V9.84736H1ZM1 18.5618C1 21.3033 3.2407 23.5 5.97291 23.5V20.5C4.86905 20.5 4 19.6181 4 18.5618H1ZM5.97291 23.5H7.89696V20.5H5.97291V23.5ZM7.89696 23.5C9.39653 23.5 10.638 22.2925 10.638 20.7714H7.63797C7.63797 20.6073 7.76818 20.5 7.89696 20.5V23.5Z" fill="#FF7A00" mask="url(#path-1-inside-1_719_2102)"/>
</svg>
