<svg width="28" height="32" viewBox="0 0 28 32" fill="none" xmlns="http://www.w3.org/2000/svg">
<path fill-rule="evenodd" clip-rule="evenodd" d="M23.8995 24.9276C26.433 22.2851 28 18.6345 28 14.6022C28 6.53764 21.732 0 14 0C6.26801 0 0 6.53764 0 14.6022C0 20.0794 2.89122 24.8523 7.16866 27.3511L7.28045 27.4164C11.3576 29.7986 16.6112 32.8681 20.9005 30.9548C21.4465 30.7112 21.5886 29.6271 21.7296 28.5511C21.8571 27.5781 21.9837 26.6116 22.4074 26.2793C22.935 25.8654 23.4336 25.4135 23.8995 24.9276ZM18.0668 13.3474C18.0668 12.5489 18.7141 11.9015 19.5126 11.9015C20.3111 11.9015 20.9584 12.5489 20.9584 13.3474V15.8571C20.9584 16.6557 20.3111 17.303 19.5126 17.303C18.7141 17.303 18.0668 16.6557 18.0668 15.8571V13.3474ZM14.0001 10.3044C13.2016 10.3044 12.5543 10.9518 12.5543 11.7503V17.4543C12.5543 18.2528 13.2016 18.9001 14.0001 18.9001C14.7986 18.9001 15.4459 18.2528 15.4459 17.4543V11.7503C15.4459 10.9518 14.7986 10.3044 14.0001 10.3044ZM7.04177 13.3474C7.04177 12.5489 7.68909 11.9015 8.4876 11.9015C9.28611 11.9015 9.93343 12.5489 9.93343 13.3474V15.8571C9.93343 16.6557 9.28611 17.303 8.4876 17.303C7.68909 17.303 7.04177 16.6557 7.04177 15.8571V13.3474Z" fill="#FFA800"/>
</svg>
