<svg width="14" height="17" viewBox="0 0 14 17" fill="none" xmlns="http://www.w3.org/2000/svg">
<path d="M2.91056 0C2.13863 0 1.39832 0.289314 0.852484 0.804295C0.306648 1.31928 0 2.01774 0 2.74604V16.3455C0.000131737 16.4658 0.0354578 16.5837 0.102088 16.6863C0.168718 16.789 0.264068 16.8722 0.377637 16.927C0.491206 16.9817 0.618589 17.0059 0.745759 16.9967C0.872929 16.9875 0.994952 16.9454 1.09839 16.875L6.92991 12.9031L12.7614 16.8764C12.865 16.9468 12.9871 16.9889 13.1144 16.998C13.2417 17.0071 13.3692 16.9829 13.4828 16.928C13.5964 16.8731 13.6917 16.7896 13.7583 16.6868C13.8248 16.584 13.8599 16.4659 13.8598 16.3455V2.74604C13.8598 2.01774 13.5532 1.31928 13.0073 0.804295C12.4615 0.289314 11.7212 0 10.9493 0H2.91056Z" fill="#FF9900"/>
</svg>
