<svg width="17" height="17" viewBox="0 0 17 17" fill="none" xmlns="http://www.w3.org/2000/svg">
<path fill-rule="evenodd" clip-rule="evenodd" d="M12.1141 16.4743H4.79225C2.10273 16.4743 0.0394349 15.5554 0.625507 11.8569L1.30792 6.8446C1.6692 4.99915 2.91361 4.29287 4.00547 4.29287H12.9331C14.041 4.29287 15.2131 5.05232 15.6306 6.8446L16.313 11.8569C16.8108 15.1378 14.8037 16.4743 12.1141 16.4743Z" stroke="black" stroke-linecap="round" stroke-linejoin="round"/>
<path d="M12.2347 4.11041C12.2347 2.1307 10.5381 0.525826 8.44524 0.525826C7.43745 0.521794 6.46948 0.89767 5.75535 1.57034C5.04123 2.24302 4.63978 3.15708 4.63979 4.11041" stroke="black" stroke-linecap="round" stroke-linejoin="round"/>
<path d="M11.0463 7.84635H11.0063" stroke="black" stroke-linecap="round" stroke-linejoin="round"/>
<path d="M5.93248 7.84635H5.89234" stroke="black" stroke-linecap="round" stroke-linejoin="round"/>
</svg>
