<svg width="76" height="11" viewBox="0 0 76 11" fill="none" xmlns="http://www.w3.org/2000/svg">
<path d="M9.21559 6.8427C9.06565 6.988 8.99676 7.19815 9.03092 7.40424L9.54557 10.2525C9.58899 10.4939 9.4871 10.7382 9.28506 10.8777C9.08707 11.0224 8.82367 11.0398 8.60774 10.924L6.04375 9.58673C5.95459 9.53926 5.8556 9.51378 5.75429 9.51089H5.59741C5.54299 9.51899 5.48973 9.53636 5.4411 9.56299L2.87653 10.9066C2.74975 10.9703 2.60618 10.9929 2.4655 10.9703C2.12279 10.9055 1.89412 10.579 1.95027 10.2345L2.4655 7.38629C2.49966 7.17846 2.43077 6.96716 2.28083 6.81954L0.190389 4.79336C0.0155586 4.62374 -0.0452268 4.36902 0.0346627 4.1392C0.112237 3.90995 0.310223 3.74265 0.549313 3.70502L3.42649 3.28763C3.64532 3.26505 3.83752 3.1319 3.93593 2.93507L5.20375 0.335767C5.23385 0.277877 5.27264 0.224617 5.31953 0.179462L5.37163 0.138938C5.39884 0.108835 5.4301 0.0839419 5.46484 0.0636801L5.52794 0.0405237L5.62635 0H5.87007C6.08774 0.0225775 6.27936 0.152832 6.37951 0.347346L7.66411 2.93507C7.75674 3.12437 7.93678 3.25579 8.14461 3.28763L11.0218 3.70502C11.2649 3.73975 11.4681 3.90764 11.5486 4.1392C11.6244 4.37133 11.559 4.62605 11.3807 4.79336L9.21559 6.8427Z" fill="#FFAB07"/>
<path d="M25.2156 6.8427C25.0657 6.988 24.9968 7.19815 25.0309 7.40424L25.5456 10.2525C25.589 10.4939 25.4871 10.7382 25.2851 10.8777C25.0871 11.0224 24.8237 11.0398 24.6077 10.924L22.0437 9.58673C21.9546 9.53926 21.8556 9.51378 21.7543 9.51089H21.5974C21.543 9.51899 21.4897 9.53636 21.4411 9.56299L18.8765 10.9066C18.7497 10.9703 18.6062 10.9929 18.4655 10.9703C18.1228 10.9055 17.8941 10.579 17.9503 10.2345L18.4655 7.38629C18.4997 7.17846 18.4308 6.96716 18.2808 6.81954L16.1904 4.79336C16.0156 4.62374 15.9548 4.36902 16.0347 4.1392C16.1122 3.90995 16.3102 3.74265 16.5493 3.70502L19.4265 3.28763C19.6453 3.26505 19.8375 3.1319 19.9359 2.93507L21.2037 0.335767C21.2339 0.277877 21.2726 0.224617 21.3195 0.179462L21.3716 0.138938C21.3988 0.108835 21.4301 0.0839419 21.4648 0.0636801L21.5279 0.0405237L21.6264 0H21.8701C22.0877 0.0225775 22.2794 0.152832 22.3795 0.347346L23.6641 2.93507C23.7567 3.12437 23.9368 3.25579 24.1446 3.28763L27.0218 3.70502C27.2649 3.73975 27.4681 3.90764 27.5486 4.1392C27.6244 4.37133 27.559 4.62605 27.3807 4.79336L25.2156 6.8427Z" fill="#FFAB07"/>
<path d="M41.2156 6.8427C41.0657 6.988 40.9968 7.19815 41.0309 7.40424L41.5456 10.2525C41.589 10.4939 41.4871 10.7382 41.2851 10.8777C41.0871 11.0224 40.8237 11.0398 40.6077 10.924L38.0437 9.58673C37.9546 9.53926 37.8556 9.51378 37.7543 9.51089H37.5974C37.543 9.51899 37.4897 9.53636 37.4411 9.56299L34.8765 10.9066C34.7497 10.9703 34.6062 10.9929 34.4655 10.9703C34.1228 10.9055 33.8941 10.579 33.9503 10.2345L34.4655 7.38629C34.4997 7.17846 34.4308 6.96716 34.2808 6.81954L32.1904 4.79336C32.0156 4.62374 31.9548 4.36902 32.0347 4.1392C32.1122 3.90995 32.3102 3.74265 32.5493 3.70502L35.4265 3.28763C35.6453 3.26505 35.8375 3.1319 35.9359 2.93507L37.2037 0.335767C37.2339 0.277877 37.2726 0.224617 37.3195 0.179462L37.3716 0.138938C37.3988 0.108835 37.4301 0.0839419 37.4648 0.0636801L37.5279 0.0405237L37.6264 0H37.8701C38.0877 0.0225775 38.2794 0.152832 38.3795 0.347346L39.6641 2.93507C39.7567 3.12437 39.9368 3.25579 40.1446 3.28763L43.0218 3.70502C43.2649 3.73975 43.4681 3.90764 43.5486 4.1392C43.6244 4.37133 43.559 4.62605 43.3807 4.79336L41.2156 6.8427Z" fill="#FFAB07"/>
<path d="M57.2156 6.8427C57.0657 6.988 56.9968 7.19815 57.0309 7.40424L57.5456 10.2525C57.589 10.4939 57.4871 10.7382 57.2851 10.8777C57.0871 11.0224 56.8237 11.0398 56.6077 10.924L54.0437 9.58673C53.9546 9.53926 53.8556 9.51378 53.7543 9.51089H53.5974C53.543 9.51899 53.4897 9.53636 53.4411 9.56299L50.8765 10.9066C50.7497 10.9703 50.6062 10.9929 50.4655 10.9703C50.1228 10.9055 49.8941 10.579 49.9503 10.2345L50.4655 7.38629C50.4997 7.17846 50.4308 6.96716 50.2808 6.81954L48.1904 4.79336C48.0156 4.62374 47.9548 4.36902 48.0347 4.1392C48.1122 3.90995 48.3102 3.74265 48.5493 3.70502L51.4265 3.28763C51.6453 3.26505 51.8375 3.1319 51.9359 2.93507L53.2037 0.335767C53.2339 0.277877 53.2726 0.224617 53.3195 0.179462L53.3716 0.138938C53.3988 0.108835 53.4301 0.0839419 53.4648 0.0636801L53.5279 0.0405237L53.6264 0H53.8701C54.0877 0.0225775 54.2794 0.152832 54.3795 0.347346L55.6641 2.93507C55.7567 3.12437 55.9368 3.25579 56.1446 3.28763L59.0218 3.70502C59.2649 3.73975 59.4681 3.90764 59.5486 4.1392C59.6244 4.37133 59.559 4.62605 59.3807 4.79336L57.2156 6.8427Z" fill="#FFAB07"/>
<path d="M73.2156 6.8427C73.0657 6.988 72.9968 7.19815 73.0309 7.40424L73.5456 10.2525C73.589 10.4939 73.4871 10.7382 73.2851 10.8777C73.0871 11.0224 72.8237 11.0398 72.6077 10.924L70.0437 9.58673C69.9546 9.53926 69.8556 9.51378 69.7543 9.51089H69.5974C69.543 9.51899 69.4897 9.53636 69.4411 9.56299L66.8765 10.9066C66.7497 10.9703 66.6062 10.9929 66.4655 10.9703C66.1228 10.9055 65.8941 10.579 65.9503 10.2345L66.4655 7.38629C66.4997 7.17846 66.4308 6.96716 66.2808 6.81954L64.1904 4.79336C64.0156 4.62374 63.9548 4.36902 64.0347 4.1392C64.1122 3.90995 64.3102 3.74265 64.5493 3.70502L67.4265 3.28763C67.6453 3.26505 67.8375 3.1319 67.9359 2.93507L69.2037 0.335767C69.2339 0.277877 69.2726 0.224617 69.3195 0.179462L69.3716 0.138938C69.3988 0.108835 69.4301 0.0839419 69.4648 0.0636801L69.5279 0.0405237L69.6264 0H69.8701C70.0877 0.0225775 70.2794 0.152832 70.3795 0.347346L71.6641 2.93507C71.7567 3.12437 71.9368 3.25579 72.1446 3.28763L75.0218 3.70502C75.2649 3.73975 75.4681 3.90764 75.5486 4.1392C75.6244 4.37133 75.559 4.62605 75.3807 4.79336L73.2156 6.8427Z" fill="#FFAB07"/>
</svg>
