<svg width="28" height="28" viewBox="0 0 28 28" fill="none" xmlns="http://www.w3.org/2000/svg">
<path fill-rule="evenodd" clip-rule="evenodd" d="M23.3333 24.5H4.66668C4.04778 24.5001 3.4542 24.2544 3.01658 23.8168C2.57895 23.3792 2.33317 22.7856 2.33334 22.1667V5.83333C2.33317 5.21444 2.57895 4.62085 3.01658 4.18323C3.4542 3.74561 4.04778 3.49983 4.66668 3.5H23.3333C23.9523 3.49983 24.5459 3.74561 24.9835 4.18323C25.4211 4.62085 25.6668 5.21444 25.6667 5.83333V22.1667C25.6668 22.7856 25.4211 23.3792 24.9835 23.8168C24.5459 24.2544 23.9523 24.5001 23.3333 24.5Z" stroke="#FEA800" stroke-width="1.5" stroke-linecap="round" stroke-linejoin="round"/>
<path d="M2.33334 9.33337H25.6667" stroke="#FEA800" stroke-width="1.5" stroke-linecap="round" stroke-linejoin="round"/>
<path d="M7 9.33333L9.33333 3.5" stroke="#FEA800" stroke-width="1.5" stroke-linecap="round" stroke-linejoin="round"/>
<path d="M12.8333 9.33333L15.1667 3.5" stroke="#FEA800" stroke-width="1.5" stroke-linecap="round" stroke-linejoin="round"/>
<path d="M18.6667 9.33333L21 3.5" stroke="#FEA800" stroke-width="1.5" stroke-linecap="round" stroke-linejoin="round"/>
<path fill-rule="evenodd" clip-rule="evenodd" d="M11.8096 19.0739V14.7593C11.8097 14.4883 11.9544 14.238 12.1891 14.1025C12.4238 13.9672 12.713 13.9673 12.9477 14.1029L16.6808 16.2601C16.9153 16.3956 17.0596 16.6458 17.0596 16.9166C17.0596 17.1874 16.9153 17.4377 16.6808 17.5731L12.9477 19.7304C12.713 19.866 12.4238 19.8661 12.1891 19.7307C11.9544 19.5953 11.8097 19.3449 11.8096 19.0739Z" stroke="#FEA800" stroke-width="1.5" stroke-linecap="round" stroke-linejoin="round"/>
</svg>
