<svg width="12" height="4" viewBox="0 0 12 4" fill="none" xmlns="http://www.w3.org/2000/svg">
<path d="M6.07691 1.23298C5.40089 1.23298 4.85284 1.41503 4.85284 1.6396C4.85284 1.86416 5.40086 2.04621 6.07691 2.04621C6.75294 2.04621 7.30099 1.86417 7.30099 1.6396C7.30099 1.41503 6.75297 1.23298 6.07691 1.23298ZM6.07691 1.85258C5.72279 1.85258 5.43573 1.75722 5.43573 1.63959C5.43573 1.52196 5.72279 1.4266 6.07691 1.4266C6.43103 1.4266 6.7181 1.52196 6.7181 1.63959C6.7181 1.75722 6.43103 1.85258 6.07691 1.85258Z" fill="#FF7A00"/>
<path d="M10.9587 0.303719L3.00228 0.00361589C2.69349 -0.0109673 2.38062 0.0189773 2.14254 0.0859079C1.90448 0.147224 1.75188 0.238114 1.71994 0.337611L1.57423 0.734534H1.12247C0.481282 0.734534 0.000393806 0.923309 0.000393806 1.13629V3.11605C-0.0157557 3.31915 0.466806 3.48816 1.07826 3.49352C1.09298 3.49365 1.10774 3.49368 1.12247 3.49361H9.12259C9.76378 3.49361 10.3467 3.32904 10.3467 3.11605V3.03861C10.5455 3.02585 10.734 2.99947 10.9004 2.96116C11.1365 2.89513 11.2877 2.80162 11.323 2.69978L11.9933 0.734534C12.0617 0.521059 11.6005 0.329022 10.9587 0.303719ZM9.76378 3.11605C9.76378 3.22255 9.44318 3.29999 9.12259 3.29999H1.12247C0.832862 3.30282 0.591204 3.22712 0.582697 3.13092C0.582251 3.12597 0.582446 3.12101 0.583283 3.11605V2.75786L2.84199 2.20604C3.11332 2.13684 3.4955 2.14299 3.74547 2.22056L5.33384 2.68525C5.57505 2.75252 5.87868 2.79013 6.19361 2.79174C6.43985 2.79274 6.68203 2.77096 6.89309 2.72881L9.7638 2.177V3.11605H9.76378ZM9.76378 1.94949L6.58703 2.56424C6.31425 2.61792 5.96897 2.6082 5.72726 2.54004L4.12433 2.07051C3.66492 1.93938 2.99344 1.93134 2.50681 2.05114L0.583283 2.51583V1.13629C0.583283 1.0298 0.801874 0.928155 1.12247 0.928155H9.12259C9.46511 0.932871 9.74171 1.02267 9.76378 1.13629V1.94949ZM11.411 0.708397C11.4108 0.709037 11.4106 0.709685 11.4104 0.710325L10.7255 2.67557C10.7267 2.72652 10.6567 2.77479 10.5361 2.80626C10.4778 2.82562 10.3466 2.83531 10.3466 2.84499V1.13629C10.3236 0.915777 9.78665 0.739528 9.12256 0.734534H2.1571L2.28824 0.356975C2.31669 0.308083 2.39365 0.263778 2.50683 0.231119C2.63464 0.201767 2.78916 0.188083 2.94402 0.192391L10.8859 0.49734C11.2063 0.507448 11.4414 0.601942 11.411 0.708397Z" fill="#FF7A00"/>
</svg>
