<svg width="228" height="28" viewBox="0 0 228 28" fill="none" xmlns="http://www.w3.org/2000/svg">
<line x1="1.4" y1="1.4" x2="1.4" y2="26.6" stroke="#FFAA00" stroke-width="2.8" stroke-linecap="round"/>
<line x1="6.4" y1="1.4" x2="6.4" y2="26.6" stroke="#FFAA00" stroke-width="2.8" stroke-linecap="round"/>
<line x1="11.4" y1="1.4" x2="11.4" y2="26.6" stroke="#FFAA00" stroke-width="2.8" stroke-linecap="round"/>
<line x1="16.4" y1="5.4" x2="16.4" y2="22.6" stroke="#FFAA00" stroke-width="2.8" stroke-linecap="round"/>
<line x1="21.4" y1="1.4" x2="21.4" y2="26.6" stroke="#FFAA00" stroke-width="2.8" stroke-linecap="round"/>
<line x1="26.4" y1="1.4" x2="26.4" y2="26.6" stroke="#FFAA00" stroke-width="2.8" stroke-linecap="round"/>
<line x1="31.4" y1="1.4" x2="31.4" y2="26.6" stroke="#FFAA00" stroke-width="2.8" stroke-linecap="round"/>
<line x1="36.4" y1="1.4" x2="36.4" y2="26.6" stroke="#FFAA00" stroke-width="2.8" stroke-linecap="round"/>
<line x1="41.4" y1="10.4" x2="41.4" y2="17.6" stroke="#FFAA00" stroke-width="2.8" stroke-linecap="round"/>
<line x1="46.4" y1="12.4" x2="46.4" y2="14.6" stroke="#FFAA00" stroke-width="2.8" stroke-linecap="round"/>
<line x1="51.4" y1="13.4" x2="51.4" y2="13.6" stroke="#FFAA00" stroke-width="2.8" stroke-linecap="round"/>
<line x1="56.4" y1="1.4" x2="56.4" y2="26.6" stroke="#FFAA00" stroke-width="2.8" stroke-linecap="round"/>
<line x1="61.4" y1="1.4" x2="61.4" y2="26.6" stroke="#FFAA00" stroke-width="2.8" stroke-linecap="round"/>
<line x1="66.4" y1="1.4" x2="66.4" y2="26.6" stroke="#FFAA00" stroke-width="2.8" stroke-linecap="round"/>
<line x1="71.4" y1="1.4" x2="71.4" y2="26.6" stroke="#FFAA00" stroke-width="2.8" stroke-linecap="round"/>
<line x1="76.4" y1="5.4" x2="76.4" y2="22.6" stroke="#FFAA00" stroke-width="2.8" stroke-linecap="round"/>
<line x1="81.4" y1="1.4" x2="81.4" y2="26.6" stroke="#FFAA00" stroke-width="2.8" stroke-linecap="round"/>
<line x1="86.4" y1="5.4" x2="86.4" y2="22.6" stroke="#FFAA00" stroke-width="2.8" stroke-linecap="round"/>
<line x1="91.4" y1="5.4" x2="91.4" y2="22.6" stroke="#FFAA00" stroke-width="2.8" stroke-linecap="round"/>
<line x1="96.4" y1="1.4" x2="96.4" y2="26.6" stroke="#FFAA00" stroke-width="2.8" stroke-linecap="round"/>
<line x1="101.4" y1="1.4" x2="101.4" y2="26.6" stroke="#FFAA00" stroke-width="2.8" stroke-linecap="round"/>
<line x1="106.4" y1="10.4" x2="106.4" y2="17.6" stroke="#FFAA00" stroke-width="2.8" stroke-linecap="round"/>
<line x1="111.4" y1="12.4" x2="111.4" y2="14.6" stroke="#FFAA00" stroke-width="2.8" stroke-linecap="round"/>
<line x1="116.4" y1="13.4" x2="116.4" y2="13.6" stroke="#FFAA00" stroke-width="2.8" stroke-linecap="round"/>
<line x1="121.4" y1="12.4" x2="121.4" y2="14.6" stroke="#FFAA00" stroke-width="2.8" stroke-linecap="round"/>
<line x1="126.4" y1="1.4" x2="126.4" y2="26.6" stroke="#FFAA00" stroke-width="2.8" stroke-linecap="round"/>
<line x1="131.4" y1="1.4" x2="131.4" y2="26.6" stroke="#FFAA00" stroke-width="2.8" stroke-linecap="round"/>
<line x1="136.4" y1="1.4" x2="136.4" y2="26.6" stroke="#FFAA00" stroke-width="2.8" stroke-linecap="round"/>
<line x1="141.4" y1="1.4" x2="141.4" y2="26.6" stroke="#FFAA00" stroke-width="2.8" stroke-linecap="round"/>
<line x1="146.4" y1="5.4" x2="146.4" y2="22.6" stroke="#FFAA00" stroke-width="2.8" stroke-linecap="round"/>
<line x1="151.4" y1="10.4" x2="151.4" y2="17.6" stroke="#FFAA00" stroke-width="2.8" stroke-linecap="round"/>
<line x1="156.4" y1="1.4" x2="156.4" y2="26.6" stroke="#FFAA00" stroke-width="2.8" stroke-linecap="round"/>
<line x1="161.4" y1="1.4" x2="161.4" y2="26.6" stroke="#FFAA00" stroke-width="2.8" stroke-linecap="round"/>
<line x1="166.4" y1="1.4" x2="166.4" y2="26.6" stroke="#FFAA00" stroke-width="2.8" stroke-linecap="round"/>
<line x1="171.4" y1="1.4" x2="171.4" y2="26.6" stroke="#FFAA00" stroke-width="2.8" stroke-linecap="round"/>
<line x1="176.4" y1="5.4" x2="176.4" y2="22.6" stroke="#FFAA00" stroke-width="2.8" stroke-linecap="round"/>
<line x1="181.4" y1="1.4" x2="181.4" y2="26.6" stroke="#FFAA00" stroke-width="2.8" stroke-linecap="round"/>
<line x1="186.4" y1="1.4" x2="186.4" y2="26.6" stroke="#FFAA00" stroke-width="2.8" stroke-linecap="round"/>
<line x1="191.4" y1="1.4" x2="191.4" y2="26.6" stroke="#FFAA00" stroke-width="2.8" stroke-linecap="round"/>
<line x1="196.4" y1="1.4" x2="196.4" y2="26.6" stroke="#FFAA00" stroke-width="2.8" stroke-linecap="round"/>
<line x1="201.4" y1="3.4" x2="201.4" y2="24.6" stroke="#FFAA00" stroke-width="2.8" stroke-linecap="round"/>
<line x1="206.4" y1="5.4" x2="206.4" y2="22.6" stroke="#FFAA00" stroke-width="2.8" stroke-linecap="round"/>
<line x1="211.4" y1="11.4" x2="211.4" y2="15.6" stroke="#FFAA00" stroke-width="2.8" stroke-linecap="round"/>
<line x1="216.4" y1="10.4" x2="216.4" y2="17.6" stroke="#FFAA00" stroke-width="2.8" stroke-linecap="round"/>
<line x1="221.4" y1="12.4" x2="221.4" y2="14.6" stroke="#FFAA00" stroke-width="2.8" stroke-linecap="round"/>
<line x1="226.4" y1="13.4" x2="226.4" y2="13.6" stroke="#FFAA00" stroke-width="2.8" stroke-linecap="round"/>
</svg>
