<svg width="34" height="20" viewBox="0 0 34 20" fill="none" xmlns="http://www.w3.org/2000/svg">
<path d="M20.7952 0.500501H28.968C31.1794 0.500501 32.972 2.29316 32.972 4.50451V7.36126V12.6388V15.4955C32.972 17.7069 31.1794 19.4995 28.968 19.4995H20.7952H12.6773H4.50451C2.29316 19.4995 0.500501 17.7069 0.500501 15.4955V12.6388V7.36126V4.50451C0.500501 2.29316 2.29315 0.500501 4.50451 0.500501H12.6773H20.7952Z" fill="#F6C859"/>
<path d="M12.6773 0.500501L16.7363 3.93088M12.6773 0.500501H20.7952M12.6773 0.500501H4.50451C2.29315 0.500501 0.500501 2.29316 0.500501 4.50451V7.36126M16.7363 3.93088L20.7952 0.500501M16.7363 3.93088V7.36126H13.614M20.7952 0.500501H28.968C31.1794 0.500501 32.972 2.29316 32.972 4.50451V7.36126M12.6773 19.4995H4.50451C2.29316 19.4995 0.500501 17.7069 0.500501 15.4955V12.6388M12.6773 19.4995L16.7363 16.0691M12.6773 19.4995H20.7952M16.7363 16.0691L20.7952 19.4995M16.7363 16.0691V12.6388M20.7952 19.4995H28.968C31.1794 19.4995 32.972 17.7069 32.972 15.4955V12.6388M16.7363 12.6388H19.8585M16.7363 12.6388H13.614M0.500501 12.6388V7.36126M0.500501 12.6388H13.614M32.972 12.6388H19.8585M32.972 12.6388V7.36126M0.500501 7.36126H13.614M13.614 7.36126V12.6388M19.8585 12.6388V7.36126H32.972" stroke="#7D662D"/>
</svg>
