<svg width="18" height="16" viewBox="0 0 18 16" fill="none" xmlns="http://www.w3.org/2000/svg">
<path opacity="0.4" d="M7.27491 11.6613H1.35698C0.60799 11.6613 0 12.2586 0 12.9944C0 13.7293 0.60799 14.3276 1.35698 14.3276H7.27491C8.02389 14.3276 8.63192 13.7293 8.63192 12.9944C8.63192 12.2586 8.02389 11.6613 7.27491 11.6613Z" fill="white"/>
<path opacity="0.4" d="M17.9999 3.04068C17.9999 2.30581 17.3919 1.70848 16.6439 1.70848H10.726C9.97702 1.70848 9.36898 2.30581 9.36898 3.04068C9.36898 3.77654 9.97702 4.37387 10.726 4.37387H16.6439C17.3919 4.37387 17.9999 3.77654 17.9999 3.04068Z" fill="white"/>
<path d="M6.18992 3.04068C6.18992 4.72067 4.80494 6.08234 3.09496 6.08234C1.38598 6.08234 0 4.72067 0 3.04068C0 1.36167 1.38598 0 3.09496 0C4.80494 0 6.18992 1.36167 6.18992 3.04068Z" fill="white"/>
<path d="M18 12.9592C18 14.6383 16.615 16 14.905 16C13.196 16 11.81 14.6383 11.81 12.9592C11.81 11.2792 13.196 9.91762 14.905 9.91762C16.615 9.91762 18 11.2792 18 12.9592Z" fill="white"/>
</svg>
