<svg width="13" height="12" viewBox="0 0 13 12" fill="none" xmlns="http://www.w3.org/2000/svg">
<path d="M6.58337 4.14624C5.85102 4.14624 5.25729 4.75835 5.25729 5.51347C5.25729 6.26855 5.85099 6.88069 6.58337 6.88069C7.31573 6.88069 7.90945 6.26858 7.90945 5.51347C7.90945 4.75835 7.31576 4.14624 6.58337 4.14624ZM6.58337 6.2296C6.19975 6.2296 5.88876 5.90897 5.88876 5.51343C5.88876 5.1179 6.19975 4.79727 6.58337 4.79727C6.967 4.79727 7.27799 5.1179 7.27799 5.51343C7.27799 5.90897 6.967 6.2296 6.58337 6.2296Z" fill="#FF7A00"/>
<path d="M11.8719 1.02125L3.25246 0.0121584C2.91794 -0.0368772 2.579 0.0638108 2.32107 0.288863C2.06318 0.495037 1.89786 0.800653 1.86326 1.13521L1.70541 2.46986H1.216C0.521387 2.46986 0.000426622 3.10461 0.000426622 3.82076V10.4777C-0.0170686 11.1606 0.505704 11.7289 1.16811 11.7469C1.18406 11.7473 1.20005 11.7474 1.216 11.7472H9.88277C10.5774 11.7472 11.2088 11.1938 11.2088 10.4777V10.2173C11.4242 10.1744 11.6285 10.0857 11.8087 9.95684C12.0645 9.73481 12.2283 9.42038 12.2665 9.07794L12.9927 2.46986C13.0668 1.75205 12.5671 1.10633 11.8719 1.02125ZM10.5774 10.4777C10.5774 10.8357 10.2301 11.0962 9.88277 11.0962H1.216C0.902264 11.1057 0.640469 10.8511 0.631253 10.5277C0.63077 10.511 0.630981 10.4943 0.631888 10.4777V9.27324L3.07881 7.41777C3.37275 7.18509 3.78678 7.20577 4.05758 7.46659L5.77831 9.02909C6.03962 9.2553 6.36855 9.38175 6.70972 9.38717C6.97647 9.39054 7.23884 9.31729 7.46749 9.17558L10.5774 7.32011V10.4777H10.5774ZM10.5774 6.55513L7.13593 8.6222C6.84041 8.8027 6.46636 8.77002 6.20451 8.54082L4.468 6.96203C3.97031 6.52111 3.24288 6.49407 2.7157 6.89692L0.631888 8.45942V3.82076C0.631888 3.46268 0.868693 3.1209 1.216 3.1209H9.88277C10.2538 3.13676 10.5535 3.4387 10.5774 3.82076V6.55513ZM12.3619 2.38197C12.3617 2.38412 12.3615 2.3863 12.3612 2.38845L11.6193 8.99654C11.6205 9.16788 11.5448 9.33016 11.414 9.43599C11.3509 9.5011 11.2088 9.53366 11.2088 9.56621V3.82076C11.1839 3.07928 10.6022 2.48665 9.88274 2.46986H2.33685L2.47892 1.20032C2.50974 1.03592 2.59311 0.886948 2.71573 0.777132C2.85418 0.678438 3.02158 0.632424 3.18934 0.64691L11.793 1.6723C12.1401 1.70628 12.3948 2.02402 12.3619 2.38197Z" fill="#FF7A00"/>
</svg>
