<svg width="24" height="24" viewBox="0 0 24 24" fill="none" xmlns="http://www.w3.org/2000/svg">
<g clip-path="url(#clip0_401_1275)">
<path d="M17.8758 14.4663C16.2307 14.4663 14.8923 15.8047 14.8923 17.4498C14.8923 19.0949 16.2307 20.4332 17.8758 20.4332C19.5212 20.4332 20.8592 19.0949 20.8592 17.4498C20.8592 15.8047 19.5209 14.4663 17.8758 14.4663ZM17.8758 18.9415C17.0531 18.9415 16.3841 18.2724 16.3841 17.4498C16.3841 16.6271 17.0531 15.958 17.8758 15.958C18.6985 15.958 19.3675 16.6271 19.3675 17.4498C19.3675 18.2725 18.6985 18.9415 17.8758 18.9415Z" fill="#FF7A00"/>
<path d="M7.68243 14.4663C6.03732 14.4663 4.69897 15.8047 4.69897 17.4498C4.69897 19.0949 6.03732 20.4332 7.68243 20.4332C9.32755 20.4332 10.6659 19.0949 10.6659 17.4498C10.6659 15.8047 9.32755 14.4663 7.68243 14.4663ZM7.68243 18.9415C6.85976 18.9415 6.1907 18.2724 6.1907 17.4498C6.1907 16.6271 6.85976 15.958 7.68243 15.958C8.50487 15.958 9.17416 16.6271 9.17416 17.4498C9.17416 18.2725 8.50511 18.9415 7.68243 18.9415Z" fill="#FF7A00"/>
<path d="M19.8849 5.9266C19.7581 5.67475 19.5003 5.51587 19.2184 5.51587H15.2902V7.0076H18.7584L20.7894 11.0472L22.1225 10.3769L19.8849 5.9266Z" fill="#FF7A00"/>
<path d="M15.6383 16.7288H9.99463V18.2205H15.6383V16.7288Z" fill="#FF7A00"/>
<path d="M5.44474 16.7288H2.85912C2.44714 16.7288 2.11328 17.0627 2.11328 17.4746C2.11328 17.8866 2.44719 18.2204 2.85912 18.2204H5.44479C5.85677 18.2204 6.19063 17.8865 6.19063 17.4746C6.19063 17.0626 5.85673 16.7288 5.44474 16.7288Z" fill="#FF7A00"/>
<path d="M23.5121 12.169L22.045 10.2795C21.904 10.0975 21.6865 9.99104 21.456 9.99104H16.036V4.77001C16.036 4.35803 15.7021 4.02417 15.2902 4.02417H2.85912C2.44714 4.02417 2.11328 4.35807 2.11328 4.77001C2.11328 5.18195 2.44719 5.51585 2.85912 5.51585H14.5443V10.7369C14.5443 11.1489 14.8782 11.4827 15.2901 11.4827H21.0907L22.1769 12.8819V16.7286H20.1134C19.7014 16.7286 19.3675 17.0625 19.3675 17.4745C19.3675 17.8864 19.7014 18.2203 20.1134 18.2203H22.9228C23.3348 18.2203 23.6687 17.8864 23.6687 17.4745V12.6264C23.6687 12.4609 23.6135 12.2998 23.5121 12.169Z" fill="#FF7A00"/>
<path d="M5.39509 12.9497H1.9641C1.55212 12.9497 1.21826 13.2836 1.21826 13.6955C1.21826 14.1075 1.55217 14.4414 1.9641 14.4414H5.39505C5.80703 14.4414 6.14089 14.1075 6.14089 13.6955C6.14089 13.2836 5.80703 12.9497 5.39509 12.9497Z" fill="#FF7A00"/>
<path d="M7.11055 10.0159H0.745841C0.333904 10.0159 0 10.3498 0 10.7618C0 11.1737 0.333904 11.5076 0.745841 11.5076H7.11055C7.52253 11.5076 7.85639 11.1737 7.85639 10.7618C7.85639 10.3498 7.52253 10.0159 7.11055 10.0159Z" fill="#FF7A00"/>
<path d="M8.32881 7.08228H1.9641C1.55212 7.08228 1.21826 7.41618 1.21826 7.82812C1.21826 8.2401 1.55217 8.57396 1.9641 8.57396H8.32881C8.74079 8.57396 9.07465 8.24005 9.07465 7.82812C9.07465 7.41618 8.74079 7.08228 8.32881 7.08228Z" fill="#FF7A00"/>
</g>
<defs>
<clipPath id="clip0_401_1275">
<rect width="24" height="24" fill="white"/>
</clipPath>
</defs>
</svg>
