<svg width="24" height="24" viewBox="0 0 24 24" fill="none" xmlns="http://www.w3.org/2000/svg">
<path fill-rule="evenodd" clip-rule="evenodd" d="M8.08921 5.00138L8.55955 5.00198C8.63995 5.0021 8.72125 5.00222 8.80329 5.00234L9.30316 5.00315C10.3999 5.00502 11.5682 5.00759 12.4586 5.00944L12.8485 5.01024C12.9098 5.01036 12.9691 5.01048 13.0263 5.01059C15.2763 4.85259 17.3073 6.52259 17.4883 8.76359C17.49 8.78658 17.4914 8.91702 17.4927 9.15428L19.5685 7.45429C20.1725 6.95929 20.9855 6.86229 21.6905 7.19529C22.3955 7.53029 22.8335 8.22229 22.8325 9.00229L22.8205 16.3513C22.8195 17.1313 22.3805 17.8233 21.6765 18.1553C21.4005 18.2863 21.1085 18.3493 20.8185 18.3493C20.3675 18.3493 19.9225 18.1943 19.5555 17.8933L17.4973 16.1855C17.4973 16.2144 17.4973 16.2435 17.4973 16.2726C17.5393 17.3286 17.1633 18.3456 16.4373 19.1356C15.6743 19.9666 14.6223 20.4496 13.4763 20.4966C13.4568 20.498 13.3473 20.4989 13.1676 20.4995L12.7725 20.5002C12.6184 20.5003 12.4433 20.5003 12.2515 20.5002L11.4056 20.4994C11.3294 20.4993 11.2519 20.4992 11.1735 20.4991L10.691 20.4983C9.54168 20.4964 8.24698 20.4934 7.24323 20.4912L6.83213 20.4903C6.70188 20.4901 6.57885 20.4898 6.46429 20.4896C6.35829 20.4976 6.25229 20.5016 6.14629 20.5016C4.03229 20.5026 2.18829 18.8826 2.01429 16.7576L2.01413 16.7554L2.0132 16.7356C2.01313 16.7335 2.01306 16.7311 2.01299 16.7284L2.0123 16.6969C2.01222 16.6925 2.01214 16.6877 2.01206 16.6825L2.0113 16.6242C2.01121 16.6164 2.01113 16.6081 2.01104 16.5992L2.01024 16.5047C2.01015 16.4924 2.01006 16.4795 2.00997 16.466L2.00943 16.3767C2.00933 16.3604 2.00924 16.3434 2.00915 16.3256L2.00834 16.1447C2.00825 16.1221 2.00816 16.0987 2.00807 16.0744L2.00729 15.8308C2.00721 15.8009 2.00712 15.77 2.00704 15.7381L2.00632 15.4225C2.00624 15.3841 2.00616 15.3447 2.00609 15.3041L2.00525 14.7597C2.00518 14.7094 2.00512 14.6578 2.00506 14.6049L2.00428 13.7082C2.00424 13.6413 2.0042 13.5729 2.00417 13.503L2.00415 9.58504C2.00419 9.46621 2.00424 9.34541 2.00429 9.22259C1.95629 8.19159 2.33029 7.16759 3.06029 6.37059C3.82229 5.53859 4.87329 5.05359 6.02029 5.00459C6.03573 5.00348 6.10882 5.00264 6.22937 5.00203L6.44453 5.00128C6.4859 5.00119 6.52992 5.0011 6.57642 5.00103L7.86452 5.00114C7.93809 5.00121 8.01304 5.00129 8.08921 5.00138ZM13.0803 6.50859C11.8177 6.50676 10.274 6.50455 8.95655 6.50311L8.26346 6.50241C8.15271 6.50231 8.04458 6.50221 7.93948 6.50213L6.2004 6.50218C6.13496 6.50248 6.09262 6.50292 6.07629 6.50359C5.33829 6.53459 4.65729 6.84759 4.16629 7.38359C3.70829 7.88459 3.47229 8.52459 3.50329 9.18859L3.50412 13.0516C3.50416 13.1368 3.50421 13.2215 3.50426 13.3055L3.50517 14.4996C3.50524 14.5739 3.50532 14.6469 3.5054 14.7186L3.50592 15.1317C3.50601 15.1975 3.5061 15.2618 3.5062 15.3244L3.50718 15.8394C3.50824 16.303 3.50959 16.6037 3.51129 16.6616C3.62529 18.0466 4.92329 19.1056 6.40929 18.9916C6.56643 18.9918 6.7279 18.9921 6.89272 18.9923L7.39625 18.9931C7.82263 18.9938 8.26388 18.9946 8.70482 18.9953L9.23284 18.9962C9.4958 18.9966 9.75647 18.997 10.0116 18.9974L10.5133 18.9982C10.5954 18.9983 10.6766 18.9984 10.7568 18.9986L11.2254 18.9992C11.3012 18.9993 11.3758 18.9993 11.449 18.9994L13.2144 18.9994C13.3299 18.999 13.4025 18.9984 13.4243 18.9976C14.1593 18.9676 14.8413 18.6556 15.3323 18.1206C15.7913 17.6216 16.0273 16.9816 15.9983 16.3206L15.9974 16.3041L15.9972 11.4679C15.9972 11.3894 15.9971 11.3118 15.9971 11.2354L15.9963 10.3796C15.9963 10.3139 15.9962 10.2499 15.9961 10.1874L15.9952 9.67406C15.9949 9.52 15.9946 9.384 15.9942 9.26905L15.9933 9.06807C15.9927 8.95396 15.992 8.88078 15.9913 8.85559C15.8783 7.46359 14.5743 6.39159 13.0803 6.50859ZM20.5185 8.61529L17.4969 11.0806C17.497 11.2034 17.4971 11.3312 17.4972 11.4637L17.4979 13.9714L20.5065 16.7343C20.7275 16.9143 20.9495 16.8403 21.0355 16.7983C21.1215 16.7583 21.3205 16.6333 21.3205 16.3493L21.3325 9.00029C21.3335 8.71629 21.1335 8.59129 21.0475 8.55029C20.9625 8.51029 20.7375 8.43529 20.5185 8.61529Z" fill="#E39801"/>
</svg>
