<svg width="17" height="18" viewBox="0 0 17 18" fill="none" xmlns="http://www.w3.org/2000/svg">
<path fill-rule="evenodd" clip-rule="evenodd" d="M12.0639 17.2021H4.92813C2.307 17.2021 0.296163 16.2554 0.867334 12.445L1.5324 7.28098C1.88449 5.37968 3.09726 4.65203 4.16136 4.65203H12.862C13.9417 4.65203 15.0841 5.43445 15.4909 7.28098L16.156 12.445C16.6411 15.8251 14.685 17.2021 12.0639 17.2021Z" stroke="white" stroke-width="1.5" stroke-linecap="round" stroke-linejoin="round"/>
<path d="M12.1813 4.46334C12.1813 2.42372 10.5279 0.770273 8.48823 0.770273C7.50606 0.766119 6.5627 1.15337 5.86673 1.8464C5.17076 2.53943 4.77952 3.48116 4.77953 4.46334" stroke="white" stroke-width="1.5" stroke-linecap="round" stroke-linejoin="round"/>
<path d="M11.0232 8.31317H10.9842" stroke="white" stroke-width="1.5" stroke-linecap="round" stroke-linejoin="round"/>
<path d="M6.03929 8.31317H6.00017" stroke="white" stroke-width="1.5" stroke-linecap="round" stroke-linejoin="round"/>
</svg>
