<svg width="16" height="16" viewBox="0 0 16 16" fill="none" xmlns="http://www.w3.org/2000/svg">
<g clip-path="url(#clip0_402_1760)">
<path fill-rule="evenodd" clip-rule="evenodd" d="M8.00001 2.6665C8.3682 2.6665 8.66663 2.96502 8.66663 3.33313L8.66567 7.3325L12.6666 7.33313C13.0348 7.33313 13.3333 7.63165 13.3333 7.99984C13.3333 8.36803 13.0348 8.66655 12.6666 8.66655L8.66567 8.6665L8.66663 12.6665C8.66663 13.0347 8.3682 13.3332 8.00001 13.3332C7.63181 13.3332 7.3333 13.0347 7.3333 12.6665L7.33267 8.6665L3.3333 8.66655C2.9651 8.66655 2.66667 8.36803 2.66667 7.99984C2.66667 7.63165 2.9651 7.33313 3.3333 7.33313L7.33267 7.3325L7.3333 3.33313C7.3333 2.96502 7.63181 2.6665 8.00001 2.6665Z" fill="#FF7A00"/>
</g>
<defs>
<clipPath id="clip0_402_1760">
<rect width="16" height="16" fill="white"/>
</clipPath>
</defs>
</svg>
