<svg width="129" height="88" viewBox="0 0 129 88" fill="none" xmlns="http://www.w3.org/2000/svg">
<rect width="75" height="87.6094" fill="black"/>
<rect x="20" y="12.6094" width="75" height="63" fill="black"/>
<path d="M66.835 37.1619C65.7694 36.1002 64.3266 35.5042 62.8225 35.5042C61.3183 35.5042 59.8755 36.1002 58.81 37.1619L58 37.9719L57.19 37.1619C56.1244 36.1002 54.6816 35.5042 53.1775 35.5042C51.6733 35.5042 50.2305 36.1002 49.165 37.1619C48.1029 38.2287 47.5066 39.6727 47.5066 41.1781C47.5066 42.6835 48.1029 44.1275 49.165 45.1944L57.4675 53.4969C57.5372 53.5672 57.6201 53.623 57.7115 53.661C57.8029 53.6991 57.9009 53.7187 58 53.7187C58.099 53.7187 58.197 53.6991 58.2884 53.661C58.3798 53.623 58.4627 53.5672 58.5325 53.4969L66.835 45.1944C67.897 44.1275 68.4933 42.6835 68.4933 41.1781C68.4933 39.6727 67.897 38.2287 66.835 37.1619Z" fill="#C5C5C5"/>
<rect x="92.5" y="31.1094" width="35" height="35" rx="17.5" fill="#E8EFF3" stroke="black" stroke-width="3"/>
<path d="M117.51 52.7889C116.151 50.5223 115.333 49.5327 115.333 47.0855C115.332 45.8036 114.869 44.5651 114.03 43.5963C113.19 42.6275 112.03 41.9932 110.762 41.8093V41.7521C110.762 41.5501 110.682 41.3563 110.539 41.2134C110.396 41.0705 110.202 40.9902 110 40.9902C109.798 40.9902 109.604 41.0705 109.461 41.2134C109.318 41.3563 109.238 41.5501 109.238 41.7521V41.8125C107.962 42.0542 106.808 42.7309 105.975 43.7274C105.141 44.7238 104.679 45.9784 104.667 47.2775C104.667 49.5327 103.705 50.7624 102.49 52.789C102.42 52.9046 102.383 53.0365 102.381 53.1713C102.38 53.3061 102.414 53.4389 102.48 53.5561C102.546 53.6734 102.643 53.771 102.759 53.8389C102.876 53.9068 103.008 53.9426 103.143 53.9426H116.857C116.992 53.9426 117.124 53.9068 117.241 53.8389C117.357 53.771 117.453 53.6734 117.52 53.5561C117.586 53.4388 117.62 53.306 117.619 53.1712C117.617 53.0365 117.58 52.9045 117.51 52.7889Z" fill="#FF5C00"/>
<path d="M111.524 54.7046H108.476C108.274 54.7046 108.08 54.7849 107.937 54.9277C107.795 55.0706 107.714 55.2644 107.714 55.4665C107.714 55.6686 107.795 55.8624 107.937 56.0053C108.08 56.1481 108.274 56.2284 108.476 56.2284H111.524C111.726 56.2284 111.92 56.1481 112.063 56.0053C112.205 55.8624 112.286 55.6686 112.286 55.4665C112.286 55.2644 112.205 55.0706 112.063 54.9277C111.92 54.7849 111.726 54.7046 111.524 54.7046Z" fill="#FF5C00"/>
</svg>
