<svg width="30" height="28" viewBox="0 0 30 28" fill="none" xmlns="http://www.w3.org/2000/svg">
<path d="M15 28C23.2843 28 30 21.732 30 14C30 6.26801 23.2843 0 15 0C6.71573 0 0 6.26801 0 14C0 21.732 6.71573 28 15 28Z" fill="#14AB87"/>
<path fill-rule="evenodd" clip-rule="evenodd" d="M14.6667 8.08887C12.0867 8.08887 10 10.0364 10 12.4444C10 15.0391 12.9467 18.6169 14.16 19.9795C14.4267 20.2782 14.9133 20.2782 15.18 19.9795C16.3867 18.6169 19.3333 15.0391 19.3333 12.4444C19.3333 10.0364 17.2467 8.08887 14.6667 8.08887ZM11.3333 12.4444C11.3333 10.7271 12.8267 9.33331 14.6667 9.33331C16.5067 9.33331 18 10.7271 18 12.4444C18 14.2364 16.08 16.9182 14.6667 18.592C13.28 16.9306 11.3333 14.2178 11.3333 12.4444ZM13 12.4444C13 13.3031 13.7467 14 14.6667 14C15.5867 14 16.3333 13.3031 16.3333 12.4444C16.3333 11.5858 15.5867 10.8889 14.6667 10.8889C13.7467 10.8889 13 11.5858 13 12.4444Z" fill="white"/>
</svg>
