<svg width="54" height="64" viewBox="0 0 54 64" fill="none" xmlns="http://www.w3.org/2000/svg">
<path d="M33.4782 27.1142C36.9815 31.2662 36.9815 37.9979 33.4782 42.1502C29.975 46.3022 24.2951 46.3022 20.7917 42.1502C17.2884 37.9979 17.2884 31.2662 20.7917 27.1142C24.2951 22.9621 29.975 22.9621 33.4782 27.1142Z" stroke="white" stroke-width="1.5" stroke-linecap="round" stroke-linejoin="round"/>
<path fill-rule="evenodd" clip-rule="evenodd" d="M47.25 24V48C47.25 50.9467 45.2363 53.3334 42.75 53.3334H11.25C8.76375 53.3334 6.75 50.9467 6.75 48V24C6.75 21.0534 8.76375 18.6667 11.25 18.6667H15.75L19.0395 11.9894C19.4422 11.1707 20.1825 10.6667 20.9835 10.6667H32.9175C33.7073 10.6667 34.4385 11.1574 34.8458 11.9574L38.25 18.6667H42.75C45.2363 18.6667 47.25 21.0534 47.25 24Z" stroke="white" stroke-width="1.5" stroke-linecap="round" stroke-linejoin="round"/>
</svg>
