<svg width="28" height="28" viewBox="0 0 28 28" fill="none" xmlns="http://www.w3.org/2000/svg">
<path d="M9.91663 20.7445V9.29132C9.91663 8.80716 10.2153 8.37316 10.668 8.20166L20.5846 4.42399C21.3488 4.13232 22.1666 4.69699 22.1666 5.51366V18.4042" stroke="#FFD600" stroke-width="1.5" stroke-linecap="round" stroke-linejoin="round"/>
<path d="M21.3124 16.3417C22.4514 17.4807 22.4514 19.3274 21.3124 20.4664C20.1734 21.6055 18.3267 21.6055 17.1876 20.4664C16.0486 19.3274 16.0486 17.4807 17.1876 16.3417C18.3267 15.2027 20.1734 15.2027 21.3124 16.3417Z" stroke="#FFD600" stroke-width="1.5" stroke-linecap="round" stroke-linejoin="round"/>
<path d="M9.06243 18.6751C10.2015 19.8141 10.2015 21.6608 9.06243 22.7998C7.9234 23.9388 6.07667 23.9388 4.93765 22.7998C3.79862 21.6608 3.79862 19.8141 4.93765 18.6751C6.07667 17.536 7.9234 17.536 9.06243 18.6751Z" stroke="#FFD600" stroke-width="1.5" stroke-linecap="round" stroke-linejoin="round"/>
</svg>
